<svg preserveAspectRatio="xMidYMid meet" viewBox="74.367666232073 33.6 770.0651890482399 536.4" xmlns="http://www.w3.org/2000/svg" version="1.0" style="max-height: 500px" width="770.0651890482399" height="536.4">

<g stroke="none" fill="#000000" transform="translate(0.000000,600.000000) scale(0.100000,-0.100000)">
<path d="M4817 5579 c-127 -34 -174 -56 -223 -105 -44 -44 -71 -105 -86 -193&#10;-10 -63 -10 -69 17 -131 15 -36 27 -72 26 -80 -3 -46 -14 -100 -21 -100 -9 0&#10;-36 31 -43 50 -3 8 -6 1 -6 -16 -1 -18 8 -43 20 -58 24 -30 21 -31 -26 -11&#10;-20 8 -40 24 -45 37 -9 21 -10 21 -7 -7 2 -16 7 -38 12 -47 6 -16 2 -16 -62 2&#10;-37 10 -111 37 -163 58 -141 59 -254 92 -314 92 -65 0 -203 -38 -311 -87 -44&#10;-19 -122 -51 -173 -69 -65 -24 -119 -53 -183 -99 -122 -87 -274 -171 -326&#10;-180 -45 -7 -93 -38 -93 -60 0 -7 -32 -47 -70 -88 -90 -96 -108 -137 -116&#10;-265 -7 -100 -6 -103 24 -164 17 -35 50 -85 73 -113 23 -27 62 -80 88 -117 25&#10;-37 55 -72 67 -79 16 -8 23 -23 26 -61 4 -36 13 -57 34 -79 45 -47 91 -72 119&#10;-65 53 13 10 -37 -63 -73 -47 -24 -49 -39 -11 -93 26 -37 24 -66 -10 -120 -26&#10;-40 -37 -48 -97 -68 -37 -13 -77 -33 -88 -44 -171 -178 -585 -760 -586 -822 0&#10;-6 -11 -21 -25 -34 -14 -13 -25 -33 -25 -44 0 -17 -13 -27 -61 -45 -77 -31&#10;-155 -113 -210 -222 -25 -51 -64 -105 -107 -152 -77 -81 -106 -122 -179 -252&#10;-48 -85 -203 -440 -203 -464 0 -14 -17 -14 -25 -1 -3 6 -20 17 -36 26 -37 19&#10;-56 7 -65 -40 -5 -30 -16 -38 -127 -96 -193 -100 -225 -132 -213 -216 5 -42 4&#10;-45 -39 -80 -24 -21 -49 -50 -56 -66 -6 -15 -17 -28 -23 -28 -6 0 -2 -7 8 -15&#10;24 -18 134 -20 186 -4 19 6 82 12 140 13 91 3 114 7 175 33 39 16 108 40 155&#10;52 105 28 199 79 259 141 25 26 59 55 74 65 31 20 67 82 71 124 3 29 46 60 99&#10;70 41 9 77 61 77 111 0 33 6 42 63 87 91 74 175 166 196 215 16 36 30 48 87&#10;78 44 23 74 45 84 64 9 17 48 49 90 76 57 35 82 57 105 96 27 44 33 49 55 43&#10;85 -24 178 3 192 55 16 65 182 191 293 223 39 12 65 30 118 84 64 64 70 68 95&#10;57 15 -6 43 -16 62 -24 35 -12 35 -13 34 -71 -3 -124 -32 -251 -54 -238 -8 5&#10;-60 -51 -60 -64 0 -5 -23 -32 -50 -61 -62 -65 -195 -319 -186 -354 7 -27 -34&#10;-92 -139 -221 -173 -213 -309 -332 -434 -380 -61 -23 -73 -32 -105 -80 -48&#10;-73 -52 -93 -22 -130 l24 -29 -49 -73 c-27 -39 -53 -74 -59 -78 -17 -10 -11&#10;-44 9 -55 51 -27 291 -1 373 41 20 10 47 19 59 19 12 0 73 32 137 71 82 50&#10;118 67 125 60 18 -18 24 -13 37 34 9 32 28 59 70 100 32 30 68 55 79 55 13 0&#10;35 20 62 58 23 31 121 136 218 232 194 192 334 350 355 402 8 18 33 54 55 80&#10;34 38 41 53 41 87 0 30 6 46 22 59 31 25 207 201 216 217 4 7 41 36 82 63 41&#10;28 96 69 122 92 69 60 173 194 193 248 10 26 19 49 21 51 2 2 73 -49 159 -113&#10;l155 -116 0 -194 c0 -176 2 -194 19 -210 10 -9 30 -18 43 -20 13 -1 34 -12 46&#10;-24 21 -21 44 -27 86 -22 10 1 31 -11 47 -26 23 -22 34 -26 62 -21 29 4 38 1&#10;59 -23 14 -16 37 -32 52 -36 32 -8 83 12 97 37 5 11 16 19 24 19 11 0 15 13&#10;15 54 0 30 3 57 8 59 4 3 421 -301 926 -674 l919 -679 217 0 c334 0 610 27&#10;705 69 53 23 95 73 95 113 0 22 -11 41 -38 68 -58 59 -97 61 -327 17 -284 -55&#10;-327 -60 -480 -61 -171 -1 -200 8 -347 103 -207 135 -790 560 -1394 1018&#10;l-242 182 5 48 c3 26 11 71 19 100 19 71 18 86 -15 146 -15 28 -38 84 -50 123&#10;-13 39 -30 84 -40 100 -16 26 -21 28 -73 25 -31 -1 -59 2 -62 8 -4 6 14 8 51&#10;4 46 -5 55 -4 51 8 -3 8 -13 40 -22 72 -11 37 -22 57 -32 57 -25 0 -70 -27&#10;-96 -59 -18 -20 -29 -26 -39 -20 -19 12 -32 11 -24 -1 4 -6 10 -24 15 -41 8&#10;-26 4 -35 -23 -66 -35 -40 -82 -64 -124 -62 -28 1 -28 1 3 9 42 10 98 45 117&#10;73 13 20 13 28 1 55 -15 38 -25 39 -119 12 -96 -27 -116 -24 -30 6 l70 23 -50&#10;-5 c-102 -11 -145 -24 -145 -44 0 -39 -11 -50 -50 -50 -32 0 -54 12 -136 76&#10;-65 49 -101 84 -106 101 -10 35 -3 43 37 43 42 0 85 19 85 37 0 13 -7 20 -60&#10;61 l-25 20 50 54 c28 29 62 69 77 88 21 27 29 32 36 22 13 -19 24 -194 16&#10;-252 -6 -43 -3 -55 25 -104 18 -31 36 -58 41 -61 5 -3 29 0 52 8 24 8 84 23&#10;135 33 l92 18 25 -23 25 -24 6 26 c5 18 20 31 55 45 46 19 49 23 55 66 4 25 4&#10;62 1 81 -5 26 -1 44 16 75 20 34 21 42 10 61 -13 20 -9 27 56 93 38 39 72 80&#10;76 91 4 11 11 74 16 140 37 491 47 552 112 673 49 92 50 94 38 140 -17 71 -91&#10;220 -143 287 -57 76 -112 116 -207 149 -106 38 -154 67 -158 95 -4 24 60 131&#10;78 131 6 0 10 11 10 25 0 18 8 29 26 37 21 10 25 17 20 39 -5 24 -2 27 47 38&#10;29 6 71 20 95 31 l42 19 -1 93 c0 51 -4 113 -7 138 -6 38 -11 46 -33 50 -24 5&#10;-26 9 -28 74 -1 37 -6 76 -9 86 -6 17 -172 152 -277 227 -61 43 -146 73 -203&#10;72 -26 -1 -96 -14 -155 -30z m243 -8 c16 -5 -12 -10 -80 -13 -59 -4 -123 -13&#10;-145 -22 -31 -13 -33 -15 -10 -10 135 27 214 28 310 2 38 -10 205 -139 205&#10;-158 0 -21 -165 -78 -235 -81 -24 -1 -26 -3 -7 -6 37 -7 183 26 229 52 40 22&#10;42 22 58 5 16 -17 15 -19 -4 -30 -12 -6 -56 -20 -99 -32 -64 -17 -115 -22&#10;-299 -25 -143 -3 -223 -2 -223 5 0 5 -18 7 -43 5 -42 -5 -43 -4 -54 30 -10 32&#10;-9 36 11 41 36 10 43 7 56 -24 7 -17 15 -29 17 -27 7 7 -29 87 -38 87 -21 0&#10;-79 -30 -79 -40 0 -6 6 -26 14 -44 l14 -34 109 -8 c148 -12 372 -10 462 5 41&#10;6 101 22 134 35 l58 24 10 -25 c5 -13 9 -44 9 -67 0 -44 0 -44 -47 -55 -110&#10;-28 -160 -33 -373 -40 l-225 -8 220 -1 c205 -1 294 6 398 33 23 6 27 4 27 -14&#10;0 -11 -11 -28 -24 -36 -35 -23 -165 -44 -274 -45 -90 0 -95 -1 -123 -29 -24&#10;-24 -29 -38 -29 -78 0 -26 -7 -57 -15 -67 -9 -12 -15 -42 -15 -75 0 -82 -16&#10;-127 -55 -158 -24 -19 -35 -36 -35 -53 0 -19 -6 -26 -20 -27 -21 -2 -45 31&#10;-35 47 3 5 -17 19 -45 31 -52 22 -137 104 -166 160 -23 45 -35 208 -18 235 13&#10;19 11 27 -21 79 -30 50 -35 68 -35 120 0 89 23 155 70 203 52 54 97 76 227&#10;111 107 29 184 36 233 22z m454 -553 c5 -65 6 -124 3 -132 -6 -15 -91 -50&#10;-149 -61 -33 -6 -36 -4 -46 22 -8 25 -5 37 22 84 18 29 37 68 44 86 12 35 73&#10;103 94 104 7 0 4 5 -7 10 -18 8 -18 8 5 6 25 -2 25 -4 34 -119z m-131 12 c-7&#10;-27 -20 -34 -27 -14 -7 19 1 34 19 34 8 0 11 -7 8 -20z m-1368 -15 c48 -14&#10;125 -42 171 -62 94 -41 92 -36 49 -123 -42 -83 -147 -211 -367 -444 l-84 -89&#10;-2 91 c-1 50 3 103 8 117 16 42 0 28 -20 -18 -10 -23 -22 -73 -26 -110 l-7&#10;-68 -20 33 c-11 18 -40 60 -65 92 -25 32 -51 75 -58 95 l-13 36 -1 -33 c0 -42&#10;21 -92 65 -152 19 -26 35 -52 35 -58 0 -6 -29 -26 -64 -46 -64 -36 -65 -36&#10;-182 -36 -67 0 -114 4 -108 9 5 4 51 26 103 47 94 38 171 95 171 125 -1 8 -7&#10;2 -15 -12 -20 -37 -55 -57 -168 -95 -55 -19 -110 -40 -122 -48 -31 -20 -67 -1&#10;-82 44 -9 28 -16 34 -33 32 -13 -1 -29 3 -36 9 -30 24 -277 -86 -348 -156 -44&#10;-43 -86 -111 -86 -140 0 -24 -17 -18 -41 16 -20 28 -22 42 -20 128 2 119 7&#10;139 40 174 47 52 149 91 296 113 47 7 48 8 20 15 -16 4 -57 7 -90 8 -49 0 -70&#10;-5 -114 -29 -30 -17 -57 -30 -60 -30 -3 0 19 25 49 55 31 31 63 55 75 55 37 0&#10;169 -41 219 -68 44 -24 96 -77 96 -97 0 -4 -23 13 -50 39 -48 45 -69 53 -77&#10;29 -4 -12 98 -72 135 -79 23 -5 23 -3 -8 41 -56 82 -186 163 -263 166 -17 0&#10;-13 4 13 13 57 21 228 123 315 187 51 38 100 66 135 76 30 8 102 37 160 63&#10;113 51 171 71 265 94 85 20 112 19 210 -9z m1273 -6 l32 -11 -27 -34 -26 -34&#10;26 -58 26 -57 -27 -6 c-47 -11 -196 -10 -256 3 -51 10 -57 13 -52 32 3 12 11&#10;47 19 80 7 34 21 64 32 72 25 18 75 18 101 0 19 -13 25 -13 55 3 42 23 57 24&#10;97 10z m72 -25 c0 -11 -45 -84 -52 -84 -15 0 -8 32 13 61 18 26 39 38 39 23z&#10;m-957 -109 c85 -23 97 -40 62 -91 -33 -48 -46 -99 -54 -207 l-6 -89 -25 34&#10;c-13 18 -37 56 -53 83 -15 28 -25 39 -22 25 4 -14 24 -53 45 -87 l38 -62 -109&#10;-35 c-60 -19 -141 -51 -181 -71 -86 -43 -205 -131 -245 -182 -15 -19 -36 -45&#10;-45 -57 l-17 -21 -40 39 -40 39 18 26 c10 14 20 31 22 37 2 6 61 63 130 127&#10;211 193 355 358 407 465 15 29 31 51 37 49 5 -2 41 -12 78 -22z m247 -167 c22&#10;-25 62 -61 90 -79 33 -21 46 -35 38 -40 -9 -6 -6 -13 9 -26 11 -10 28 -37 36&#10;-59 9 -23 28 -55 43 -70 l26 -29 -52 -3 c-75 -4 -181 30 -222 71 -36 36 -78&#10;144 -78 199 0 18 8 55 17 81 l18 49 18 -24 c10 -13 36 -44 57 -70z m685 74 c7&#10;-18 -37 -32 -78 -25 -20 3 -37 1 -41 -6 -5 -7 4 -11 23 -11 20 0 31 -5 31 -14&#10;0 -8 2 -21 5 -29 4 -10 -12 -20 -57 -37 -77 -27 -87 -36 -54 -44 21 -5 26 -13&#10;26 -36 0 -21 -5 -30 -17 -31 -17 -1 -17 -2 0 -6 25 -7 21 -26 -13 -51 -46 -35&#10;-73 -28 -166 39 -46 34 -84 65 -84 68 0 4 11 18 25 31 15 14 27 39 31 66 3 24&#10;9 44 12 44 3 0 19 -12 35 -27 l29 -28 -26 52 c-14 29 -26 54 -26 55 0 2 76 3&#10;170 3 129 0 171 -3 175 -13z m-346 -284 l45 -28 -45 0 -45 0 -16 53 c-16 49&#10;-16 50 0 28 9 -14 37 -37 61 -53z m-111 7 c16 -34 15 -35 -8 -35 -13 0 -24 10&#10;-30 26 -13 33 -13 34 8 34 11 0 24 -11 30 -25z m432 -57 c52 -18 109 -41 126&#10;-50 45 -24 118 -110 162 -187 48 -86 94 -218 86 -245 -3 -11 -26 -55 -49 -97&#10;-41 -71 -45 -84 -64 -225 -11 -82 -24 -210 -30 -284 -21 -266 -23 -287 -31&#10;-299 -5 -10 -20 -9 -61 4 -100 31 -99 30 -88 67 5 18 9 53 9 77 0 41 -5 48&#10;-81 127 l-82 83 62 68 c64 71 97 126 85 144 -4 6 -18 -3 -35 -24 -28 -34 -70&#10;-59 -120 -71 l-26 -6 13 74 c7 40 28 131 48 202 19 71 42 174 51 229 8 55 18&#10;113 21 129 l6 28 86 -83 c47 -46 76 -70 64 -53 -12 17 -28 37 -37 44 -8 7 -38&#10;39 -65 70 l-50 58 33 -8 c19 -4 77 -28 130 -53 53 -25 97 -44 97 -42 0 2 -36&#10;25 -80 52 l-80 48 32 11 c18 6 33 13 33 17 0 3 -16 16 -35 29 -19 13 -51 46&#10;-72 73 -25 33 -54 57 -85 72 -26 12 -51 22 -54 22 -4 1 -38 -39 -77 -88 l-70&#10;-89 43 -7 c27 -4 53 -2 66 5 19 11 26 8 57 -23 l35 -36 -12 -118 c-7 -65 -24&#10;-167 -38 -228 -14 -60 -36 -157 -48 -215 -20 -91 -27 -110 -59 -145 -20 -22&#10;-51 -61 -69 -87 -19 -28 -40 -48 -51 -48 -29 0 -16 52 44 181 70 150 80 182&#10;80 248 0 83 -20 139 -104 291 l-74 135 36 30 c59 47 111 105 155 173 29 45 45&#10;62 56 58 9 -3 59 -20 111 -38z m-348 2 c18 0 19 -2 7 -16 -11 -14 -10 -19 10&#10;-35 32 -26 45 -24 91 17 22 20 47 34 57 32 15 -3 12 -10 -18 -40 -37 -38 -105&#10;-64 -143 -54 -20 5 -86 83 -86 101 0 4 14 5 31 1 17 -3 40 -6 51 -6z m-499&#10;-97 c47 -93 81 -184 92 -245 8 -44 16 -45 80 -18 26 11 49 20 53 20 15 0 -50&#10;-57 -116 -101 -41 -27 -69 -49 -64 -49 17 0 127 77 183 128 31 28 77 61 103&#10;72 25 11 66 29 91 39 l44 20 73 -122 c141 -239 148 -304 56 -503 -58 -125 -75&#10;-170 -81 -219 -3 -27 -12 -34 -99 -72 -203 -89 -410 -145 -627 -168 -64 -7&#10;-98 -13 -76 -14 22 0 80 4 130 9 212 25 390 75 663 187 9 4 12 -15 12 -74 0&#10;-66 -3 -83 -20 -101 -37 -39 -115 -71 -212 -86 -208 -32 -388 -29 -601 10&#10;l-88 16 -115 101 -115 100 30 24 c27 21 31 31 31 74 0 63 -15 97 -80 189 -40&#10;56 -51 79 -47 99 8 41 -3 56 -83 116 -111 83 -110 76 -28 153 39 37 80 71 91&#10;75 11 4 61 14 111 23 56 9 96 21 103 31 7 9 36 26 64 37 46 19 53 26 64 62 7&#10;23 29 63 49 89 39 52 48 83 19 66 -10 -5 -36 -35 -58 -67 -22 -31 -51 -61 -64&#10;-66 -21 -7 -23 -6 -19 17 5 22 3 25 -16 19 -11 -3 -46 -25 -76 -49 -60 -46&#10;-99 -69 -106 -62 -3 2 13 27 35 55 49 62 145 131 246 178 69 32 265 91 307 93&#10;13 1 31 -25 61 -86z m-1130 -219 c10 -13 29 -24 42 -24 12 0 53 -11 89 -25 81&#10;-30 96 -31 130 -4 47 37 31 -7 -23 -64 l-50 -52 -39 38 c-23 23 -52 40 -73 44&#10;-27 4 -41 16 -64 52 -26 39 -35 46 -67 49 -71 6 -139 -91 -122 -175 5 -24 -4&#10;-39 -70 -112 -42 -46 -76 -86 -75 -90 0 -3 31 -29 68 -58 l68 -52 68 40 c37&#10;21 89 55 116 74 l48 36 95 -146 c124 -188 119 -179 98 -198 -27 -25 -164 -86&#10;-221 -99 -28 -6 -51 -17 -51 -23 0 -16 60 -125 69 -125 3 0 16 7 28 15 16 11&#10;24 12 29 4 8 -14 -20 -37 -55 -46 -29 -7 -33 0 -82 122 -20 50 -56 124 -81&#10;165 -24 41 -55 96 -67 122 -28 59 -114 130 -191 159 -66 24 -85 37 -94 65 -9&#10;29 4 41 146 139 83 57 136 100 153 127 30 45 96 81 135 72 14 -3 33 -16 43&#10;-30z m373 -29 c14 -25 24 -51 21 -59 -7 -17 -168 -129 -175 -122 -3 3 13 25&#10;36 50 49 53 72 96 72 134 0 25 7 42 16 42 2 0 15 -20 30 -45z m-468 -5 c-24&#10;-25 -29 -37 -27 -70 2 -21 0 -42 -4 -46 -7 -8 -12 32 -8 76 1 14 13 35 27 48&#10;37 33 47 27 12 -8z m106 -128 c-78 -57 -149 -150 -129 -170 3 -4 48 15 98 42&#10;106 56 104 53 -15 -32 -47 -34 -96 -62 -108 -62 -20 0 -100 40 -99 50 0 13&#10;264 200 282 200 6 0 -8 -13 -29 -28z m133 -58 c-3 -3 -12 -4 -19 -1 -8 3 -5 6&#10;6 6 11 1 17 -2 13 -5z m178 -212 c17 -26 36 -47 44 -47 8 0 20 16 26 35 11 32&#10;12 33 19 13 4 -13 5 -32 1 -43 -4 -13 13 -51 54 -122 54 -90 61 -108 61 -154&#10;0 -43 -4 -56 -22 -68 -12 -9 -26 -16 -30 -16 -14 0 -9 27 7 40 8 7 15 24 15&#10;39 -1 31 -36 121 -74 186 -22 36 -30 44 -41 35 -10 -8 -21 -1 -47 32 -75 94&#10;-79 101 -66 110 19 12 21 11 53 -40z m-311 -549 c100 -81 254 -142 454 -179&#10;66 -12 94 -22 115 -42 15 -14 27 -29 27 -34 0 -17 -223 -8 -305 11 -91 22&#10;-113 20 -33 -3 111 -32 156 -39 260 -40 87 -1 111 -4 125 -18 9 -10 15 -20 12&#10;-23 -3 -2 -39 -9 -80 -15 -149 -22 -252 6 -535 145 -205 101 -244 131 -263&#10;202 -6 21 -17 64 -26 95 -10 39 -29 73 -60 109 -25 29 -45 58 -45 64 0 6 15&#10;16 33 23 18 6 48 28 67 47 l35 36 84 -168 c74 -149 89 -173 135 -210z m322&#10;344 l-28 -23 28 -79 c15 -44 30 -84 34 -88 4 -4 19 -5 35 -1 24 6 26 10 21 38&#10;l-6 31 15 -25 c19 -34 20 -33 -20 -54 l-34 -19 24 -47 c22 -44 23 -60 4 -60&#10;-11 0 -111 240 -113 272 -1 15 -5 31 -9 34 -8 9 41 42 63 43 9 1 3 -8 -14 -22z&#10;m83 -100 c0 -21 -1 -21 -9 -2 -12 28 -12 37 0 30 6 -3 10 -16 9 -28z m-174&#10;-101 l38 -94 28 10 c44 15 59 2 17 -16 -29 -12 -35 -20 -31 -37 7 -27 28 -34&#10;59 -21 13 7 24 8 24 3 0 -11 -46 -31 -71 -31 -22 0 -39 33 -85 168 -15 42 -31&#10;82 -36 88 -8 11 -1 24 13 24 4 0 24 -42 44 -94z m-115 -47 c34 -96 36 -98 93&#10;-74 10 4 17 3 17 -4 0 -15 -68 -44 -86 -37 -7 3 -18 24 -24 48 -17 66 -42 129&#10;-57 144 -12 12 -12 14 5 14 15 0 26 -19 52 -91z m-438 -6 c-28 -53 -67 -87&#10;-137 -118 -98 -43 -152 -103 -340 -380 -59 -88 -136 -195 -169 -238 -136 -174&#10;-148 -212 -96 -294 33 -52 38 -81 14 -90 -18 -7 -60 31 -100 89 l-27 39 21 27&#10;c12 15 35 52 51 82 47 89 423 595 525 708 31 34 74 66 116 87 70 35 135 99&#10;148 145 6 24 7 24 10 3 2 -12 -6 -39 -16 -60z m1483 -551 c314 -245 631 -497&#10;705 -559 74 -62 138 -113 142 -113 12 0 -5 45 -26 69 -11 13 -64 55 -116 94&#10;-52 39 -97 72 -99 74 -10 7 34 43 65 53 75 25 181 -42 203 -127 5 -21 17 -96&#10;25 -168 8 -71 18 -141 22 -155 l7 -25 -22 20 c-33 28 -51 68 -51 110 0 34 -12&#10;46 -25 25 -14 -22 -45 -4 -224 127 -102 75 -445 325 -761 556 -316 231 -583&#10;428 -593 437 -18 17 -17 19 38 59 l58 41 41 -36 c22 -19 298 -236 611 -482z&#10;m944 337 l24 -20 -38 -39 c-42 -43 -58 -41 -69 6 -8 31 17 74 42 74 9 -1 28&#10;-10 41 -21z m-1174 -14 c139 -21 364 -29 465 -17 47 6 87 9 88 7 2 -2 1 -12&#10;-2 -23 -8 -24 -89 -46 -230 -63 -173 -20 -306 3 -387 69 -28 23 -48 42 -43 42&#10;5 0 54 -7 109 -15z m112 -115 c43 -17 106 -45 141 -62 68 -35 194 -126 199&#10;-144 5 -14 -110 -37 -115 -23 -16 42 -55 78 -122 112 -81 41 -223 147 -197&#10;147 8 0 51 -14 94 -30z m382 3 c-8 -9 -35 -38 -61 -63 l-48 -46 -94 47 -95 47&#10;77 8 c42 4 100 10 127 14 28 4 63 8 79 9 26 1 27 -1 15 -16z m-729 -325 c120&#10;-57 244 -154 271 -211 22 -50 24 -87 5 -87 -7 0 -20 -8 -27 -17 -11 -15 -11&#10;-16 1 -5 8 6 20 12 27 12 28 0 5 -103 -27 -120 -16 -9 -25 4 -73 103 -63 131&#10;-126 207 -192 233 -50 19 -178 16 -273 -6 -83 -19 -56 -21 39 -4 95 18 190 15&#10;235 -9 72 -37 120 -107 189 -275 49 -121 52 -138 30 -168 -8 -10 -15 -27 -15&#10;-36 0 -9 -12 -26 -27 -38 -27 -21 -35 -22 -168 -17 -117 4 -152 9 -214 30 -87&#10;31 -84 20 4 -13 80 -29 192 -50 273 -50 l67 -1 -82 -79 c-75 -71 -84 -84 -94&#10;-132 -6 -29 -15 -57 -19 -62 -5 -5 -38 8 -77 29 -79 43 -303 191 -351 232 -31&#10;26 -33 30 -22 58 10 27 18 91 20 151 0 18 11 25 63 38 34 9 78 18 97 20 19 2&#10;-5 3 -53 2 l-88 -1 3 50 3 50 115 11 115 11 -113 2 c-87 1 -112 4 -108 14 3 6&#10;9 19 12 29 3 9 16 19 27 22 33 8 231 26 322 30 44 1 -7 2 -113 2 -105 -1 -192&#10;1 -192 2 0 7 45 67 52 70 5 2 5 8 2 13 -12 20 58 110 110 140 70 41 121 36&#10;246 -23z m1353 -223 c26 -33 63 -80 83 -105 23 -29 16 -23 -20 15 -72 77 -156&#10;200 -155 228 0 15 8 6 23 -28 13 -27 44 -77 69 -110z m-771 -20 c-20 -35 -213&#10;-232 -291 -295 -63 -52 -63 -46 -1 85 28 61 56 99 116 162 l79 81 57 -1 57 -1&#10;-17 -31z m-2380 -203 c31 -31 86 -75 121 -97 45 -28 75 -57 103 -98 21 -32 62&#10;-80 91 -107 l52 -50 -36 -29 c-43 -36 -80 -46 -100 -29 -25 21 -110 151 -169&#10;260 -59 111 -62 102 -7 -31 40 -99 86 -190 120 -243 24 -36 25 -39 9 -63 -9&#10;-14 -43 -38 -75 -54 l-59 -30 -43 28 c-24 15 -71 52 -103 82 l-60 54 32 -46&#10;c17 -26 54 -71 82 -102 44 -48 48 -56 34 -67 -11 -10 -12 -15 -3 -21 8 -5 2&#10;-19 -22 -48 -33 -39 -36 -41 -94 -41 -115 0 -233 40 -287 97 -40 42 -76 130&#10;-84 204 -6 60 -5 68 13 77 18 10 21 6 37 -43 9 -29 34 -80 56 -113 72 -107&#10;141 -143 274 -140 l81 1 -95 7 c-108 7 -142 21 -200 82 -70 72 -132 227 -96&#10;241 11 4 16 1 16 -11 0 -34 60 -143 106 -192 49 -53 92 -83 134 -95 14 -4 1 8&#10;-29 27 -62 38 -121 115 -145 191 -9 28 -16 83 -16 126 0 66 4 83 30 126 16 28&#10;55 79 87 113 50 56 65 66 113 77 30 7 60 14 65 14 6 0 36 -25 67 -57z m3194&#10;-83 l3 -104 -13 95 c-7 52 -15 100 -16 105 -5 20 0 29 11 18 6 -6 12 -57 15&#10;-114z m-318 -21 c23 -36 32 -62 32 -91 0 -40 0 -41 16 -19 17 24 53 29 72 10&#10;7 -7 12 -27 12 -45 0 -18 5 -33 11 -33 5 0 8 4 5 9 -9 14 12 61 27 61 21 0 53&#10;-40 76 -92 13 -32 36 -59 70 -85 51 -39 59 -51 41 -69 -16 -16 -142 26 -135&#10;44 17 45 16 61 -6 81 -36 33 -65 27 -89 -18 -11 -22 -25 -43 -31 -47 -8 -5 -8&#10;-1 0 14 42 78 -38 129 -93 60 l-25 -33 15 44 c8 24 14 53 12 64 -8 50 -76 46&#10;-108 -6 l-20 -32 0 31 c0 24 10 40 46 72 32 28 44 46 40 59 -26 87 -15 94 32&#10;21z m-2593 -89 c28 -14 71 -34 98 -44 52 -19 52 -20 34 -53 l-13 -22 -44 29&#10;c-47 31 -152 124 -135 119 6 -2 33 -15 60 -29z m2922 -31 c-3 -7 -5 -2 -5 12&#10;0 14 2 19 5 13 2 -7 2 -19 0 -25z m-1817 -108 c112 -88 277 -204 303 -213 14&#10;-4 -10 -67 -26 -67 -18 0 -206 98 -282 148 -85 54 -158 114 -184 151 l-20 28&#10;25 37 c23 33 28 36 44 24 10 -7 73 -56 140 -108z m1783 16 c17 -21 49 -47 71&#10;-58 l41 -19 -35 5 c-19 4 -46 14 -60 25 -28 20 -70 87 -70 111 1 10 4 9 12 -5&#10;6 -11 25 -37 41 -59z m-1871 -115 c77 -62 242 -175 313 -216 16 -10 16 -12 -2&#10;-33 l-18 -24 -53 21 c-76 30 -149 68 -212 111 -72 49 -210 178 -210 196 0 8 7&#10;26 16 40 l17 25 27 -23 c16 -13 70 -56 122 -97z m-1797 -136 c33 -68 98 -126&#10;167 -149 29 -10 97 -21 151 -23 l98 -6 -23 -24 c-39 -41 -52 -45 -127 -29&#10;-222 46 -334 167 -322 346 l3 35 13 -48 c7 -27 25 -72 40 -102z m1503 -215&#10;c51 -48 137 -107 212 -145 30 -16 57 -30 59 -31 1 -2 -12 -30 -30 -63 -41 -74&#10;-67 -86 -176 -79 -58 4 -88 12 -146 41 -61 30 -67 32 -42 11 52 -43 147 -86&#10;217 -98 l67 -11 -37 -44 c-35 -41 -40 -43 -103 -48 -47 -4 -73 -1 -95 10 -36&#10;18 -156 128 -184 168 l-21 29 118 150 c65 82 118 150 119 150 0 0 20 -18 42&#10;-40z m-1708 8 c0 -37 45 -122 79 -151 45 -37 126 -59 232 -60 49 -1 89 -3 89&#10;-5 0 -1 -30 -33 -67 -71 -38 -37 -77 -80 -88 -95 -25 -33 -84 -55 -151 -56&#10;-67 0 -142 38 -192 98 -35 42 -38 50 -29 77 5 17 11 31 12 32 1 2 26 -21 56&#10;-51 64 -61 125 -86 208 -85 90 2 117 15 31 16 -117 0 -188 41 -247 141 l-25&#10;43 38 94 c39 95 54 115 54 73z m-126 -357 c114 -101 204 -136 289 -113 21 6&#10;37 6 37 2 0 -18 -39 -30 -94 -30 -59 0 -62 -3 -46 -46 15 -40 -4 -54 -24 -18&#10;l-15 29 6 -32 c9 -52 -22 -43 -43 12 -21 56 -30 53 -10 -3 10 -28 11 -44 5&#10;-48 -16 -9 -23 3 -48 84 -29 94 -36 90 -9 -6 11 -41 17 -80 14 -89 -11 -27&#10;-29 -8 -42 42 -15 62 -33 109 -38 104 -3 -2 2 -37 11 -77 14 -70 13 -102 -4&#10;-102 -5 0 -17 31 -26 69 -10 38 -25 77 -33 87 -11 14 -14 15 -11 3 27 -88 38&#10;-141 33 -155 -9 -24 -14 -16 -37 67 -18 67 -36 105 -45 96 -2 -2 7 -39 21 -83&#10;29 -94 28 -84 13 -83 -7 0 -40 55 -73 120 -33 66 -61 116 -63 110 -3 -10 3&#10;-24 72 -173 l35 -78 -23 0 c-20 0 -27 11 -51 85 -15 46 -41 106 -57 131 -26&#10;41 -28 49 -15 61 11 12 19 12 35 4 28 -15 32 -14 25 6 -5 12 -2 15 10 10 45&#10;-18 50 -17 22 7 -27 23 -28 26 -9 26 11 0 25 -5 31 -11 6 -6 17 -8 24 -3 9 5&#10;6 10 -11 16 -18 6 -21 11 -12 20 9 9 18 9 37 0 27 -13 34 -2 10 18 -19 16 -9&#10;33 13 21 10 -5 53 -41 96 -80z m1614 -11 c88 -79 142 -137 142 -153 0 -15 -36&#10;-15 -53 0 -19 18 -19 17 -12 -7 8 -28 40 -60 61 -60 22 0 16 -11 -31 -65 l-45&#10;-50 0 41 c0 26 -11 60 -30 95 -35 64 -37 61 -11 -14 17 -48 17 -56 4 -61 -22&#10;-9 -30 0 -38 41 -7 41 -43 129 -49 122 -2 -2 6 -35 20 -74 28 -82 30 -115 9&#10;-115 -8 0 -15 7 -15 15 0 20 -53 134 -74 160 -9 11 -2 -10 15 -48 31 -68 49&#10;-147 33 -147 -5 0 -18 24 -28 53 -18 53 -55 121 -62 115 -2 -2 8 -31 21 -64&#10;36 -87 33 -122 -5 -48 -16 33 -43 73 -61 89 l-31 30 35 -52 c39 -58 61 -113&#10;55 -140 -3 -13 -10 -6 -26 25 -26 49 -89 122 -105 122 -6 0 5 -17 25 -37 41&#10;-43 74 -108 58 -118 -14 -9 -30 3 -30 21 0 16 -155 174 -171 174 -5 0 -9 5 -9&#10;10 0 6 8 10 19 10 10 0 35 11 55 25 20 14 45 25 54 25 14 0 15 2 2 10 -12 7&#10;-7 12 22 25 21 8 43 15 50 15 10 0 10 2 -1 9 -19 12 52 65 79 58 28 -7 48 19&#10;20 28 -19 6 -19 25 0 25 4 0 53 -40 108 -90z m-2028 -335 c18 -19 31 -37 29&#10;-40 -3 -2 -38 -8 -77 -11 -64 -6 -72 -5 -72 10 0 18 57 76 75 76 6 0 26 -16&#10;45 -35z m1709 -164 c25 -16 -92 -51 -167 -50 -104 1 -119 12 -42 32 36 9 74&#10;18 85 21 38 7 110 6 124 -3z"/>
<path d="M5123 5460 c-52 -23 -133 -97 -159 -145 -16 -31 -17 -37 -5 -45 11&#10;-6 19 1 32 30 24 54 94 127 149 155 54 29 42 32 -17 5z"/>
<path d="M4773 5356 c3 -8 11 -32 18 -55 12 -41 13 -41 58 -39 l46 1 -41 4&#10;c-37 4 -41 7 -51 44 l-10 40 46 -3 c42 -3 46 -6 52 -33 7 -30 7 -29 8 6 1 43&#10;-9 49 -81 49 -39 0 -49 -3 -45 -14z"/>
<path d="M4572 5298 c-20 -20 -15 -58 7 -58 22 0 35 28 25 54 -7 19 -16 20&#10;-32 4z m23 -38 c-3 -5 -11 -10 -16 -10 -6 0 -7 5 -4 10 3 6 11 10 16 10 6 0 7&#10;-4 4 -10z"/>
<path d="M4648 5233 c12 -2 32 -2 45 0 12 2 2 4 -23 4 -25 0 -35 -2 -22 -4z"/>
<path d="M5022 5213 c2 -5 14 -25 28 -46 24 -37 27 -38 69 -33 24 3 65 6 90 6&#10;l46 1 -30 25 c-16 13 -52 31 -79 39 -52 16 -130 20 -124 8z"/>
<path d="M4674 5088 c-4 -7 -10 -61 -12 -120 l-5 -108 -30 0 c-25 0 -28 -2&#10;-17 -15 7 -8 20 -15 30 -15 12 0 26 -17 41 -46 27 -57 95 -104 150 -104 62 0&#10;69 7 69 61 0 58 -17 99 -41 99 -9 0 -20 7 -23 16 -8 20 2 33 12 17 5 -8 75&#10;-43 86 -43 1 0 0 18 -2 39 -3 29 2 47 18 69 12 16 25 51 27 76 l6 46 -56 0&#10;c-59 0 -87 -7 -87 -21 0 -5 27 -9 61 -9 37 0 58 -4 54 -10 -3 -5 -17 -10 -31&#10;-10 -15 0 -24 -6 -24 -15 0 -9 9 -15 25 -15 14 0 25 -4 25 -10 0 -5 -11 -10&#10;-25 -10 -14 0 -25 -4 -25 -10 0 -5 -11 -10 -25 -10 -14 0 -25 -5 -25 -11 0 -5&#10;-4 -7 -10 -4 -5 3 -10 26 -10 50 0 64 -15 94 -55 110 -42 18 -91 19 -101 3z&#10;m90 -51 c11 -8 17 -23 14 -38 -3 -21 -9 -24 -50 -27 -44 -3 -48 -1 -48 19 0&#10;27 27 59 50 59 9 0 24 -6 34 -13z m-34 -146 c19 -11 45 -21 58 -21 19 0 22 -5&#10;22 -40 0 -52 -15 -51 -70 5 -24 24 -47 42 -52 39 -4 -3 -8 10 -8 28 0 18 4 28&#10;8 22 4 -6 23 -21 42 -33z m16 -96 c55 -43 94 -47 94 -10 0 37 27 21 35 -22 9&#10;-48 -11 -68 -57 -59 -47 9 -95 41 -118 78 -36 60 -21 64 46 13z"/>
<path d="M3847 4944 c-12 -13 -8 -62 6 -67 23 -9 39 9 35 39 -3 27 -26 43 -41&#10;28z"/>
<path d="M3530 4859 c0 -25 33 -22 38 4 2 12 -3 17 -17 17 -15 0 -21 -6 -21&#10;-21z"/>
<path d="M3677 4823 c-13 -12 -7 -50 9 -64 31 -26 70 25 44 56 -13 16 -42 20&#10;-53 8z"/>
<path d="M2790 4405 c-10 -12 -10 -16 1 -20 21 -8 319 -11 306 -3 -12 6 -239&#10;38 -275 38 -11 0 -25 -7 -32 -15z"/>
<path d="M5133 4937 c-59 -17 -60 -23 -11 -41 56 -22 98 -9 98 29 0 29 -17 31&#10;-87 12z"/>
<path d="M4078 3133 c7 -3 16 -2 19 1 4 3 -2 6 -13 5 -11 0 -14 -3 -6 -6z"/>
<path d="M3323 3746 c-29 -16 -53 -34 -53 -38 0 -4 10 -13 23 -19 12 -6 30&#10;-18 39 -26 13 -12 164 -83 175 -83 1 0 -128 194 -130 196 -1 0 -26 -13 -54&#10;-30z"/>
<path d="M3188 3672 c-42 -19 -43 -21 -25 -44 10 -13 26 -15 90 -11 42 3 77 9&#10;77 14 0 12 -72 59 -90 58 -8 0 -32 -8 -52 -17z"/>
<path d="M3241 3594 c-30 -8 -56 -16 -58 -18 -2 -2 2 -15 8 -30 12 -25 16 -26&#10;89 -26 88 0 130 -11 180 -49 39 -30 75 -30 90 0 14 25 1 49 -47 82 -81 56&#10;-160 69 -262 41z"/>
<path d="M3242 3502 c-23 -7 -23 -7 14 -59 23 -33 44 -53 56 -53 39 0 149 33&#10;146 44 -6 17 -108 64 -153 70 -22 2 -50 1 -63 -2z"/>
</g>
</svg>