<svg preserveAspectRatio="xMidYMid meet" viewBox="53.248 303.104 1447.936 372.736" xmlns="http://www.w3.org/2000/svg" version="1.0" style="max-height: 500px" width="1447.936" height="372.736">

<g stroke="none" fill="#000000" transform="translate(0.000000,1024.000000) scale(0.100000,-0.100000)">
<path style="opacity: 1; visibility: visible; fill: rgb(0, 46, 122);" data-index="0" d="M908 7132 c-33 -20 -58 -68 -58 -110 0 -32 10 -47 208 -322 79 -108&#10;128 -168 135 -163 85 50 186 126 181 136 -4 7 -62 91 -129 187 -67 96 -133&#10;192 -148 214 -14 21 -38 47 -54 57 -35 23 -99 24 -135 1z"/>
<path style="opacity: 1; visibility: visible; fill: rgb(0, 46, 122);" data-index="1" d="M4027 7132 c-33 -23 -341 -463 -330 -473 33 -30 185 -129 192 -125 4&#10;3 38 47 74 98 37 51 94 131 128 178 120 165 129 181 129 219 0 41 -27 88 -62&#10;107 -34 19 -99 17 -131 -4z"/>
<path style="opacity: 1;" data-index="2" d="M3545 6455 c-37 -53 -66 -97 -64 -99 87 -65 181 -127 186 -122 4 4&#10;35 46 69 93 l62 87 -82 59 c-44 33 -86 64 -93 69 -8 6 -32 -20 -78 -87z"/>
<path style="opacity: 1;" data-index="3" d="M1375 6489 c-38 -28 -78 -57 -88 -64 -18 -12 -15 -19 48 -104 l66&#10;-90 91 63 c50 34 91 65 92 68 2 10 -119 177 -129 177 -5 0 -41 -22 -80 -50z"/>
<path style="opacity: 1;" data-index="4" d="M1610 6206 c-25 -18 -64 -46 -87 -63 l-43 -30 66 -92 c36 -50 68 -91&#10;72 -91 4 0 18 10 32 21 14 11 50 36 80 57 30 20 59 40 64 43 11 8 -112 189&#10;-128 189 -6 0 -31 -15 -56 -34z"/>
<path style="opacity: 1; visibility: visible;" data-index="5" d="M3331 6153 c-34 -47 -61 -89 -61 -93 0 -12 171 -131 180 -125 14 9&#10;132 176 127 181 -13 13 -173 124 -179 124 -4 0 -34 -39 -67 -87z"/>
<path style="opacity: 1;" data-index="6" d="M3115 5858 l-65 -91 43 -31 c69 -53 135 -96 145 -96 8 0 95 116 125&#10;167 5 7 -27 35 -88 77 l-95 65 -65 -91z"/>
<path data-index="7" d="M1795 5879 c-49 -34 -92 -64 -94 -65 -4 -3 116 -171 127 -178 4 -2&#10;49 25 100 61 l92 65 -40 56 c-22 32 -52 72 -67 90 l-28 33 -90 -62z"/>
<path style="opacity: 1; visibility: visible; fill: rgb(0, 46, 122);" data-index="8" d="M9720 5759 c-130 -22 -247 -105 -296 -212 -24 -52 -29 -75 -29 -142&#10;0 -156 61 -217 308 -309 163 -61 197 -91 197 -172 0 -81 -57 -148 -146 -173&#10;-93 -26 -263 -4 -366 47 l-58 28 -25 -75 c-14 -42 -25 -81 -25 -87 0 -14 82&#10;-48 169 -70 97 -24 335 -16 413 15 167 65 254 196 247 370 -7 141 -72 208&#10;-278 290 -183 72 -224 105 -224 180 0 48 19 79 69 118 34 25 47 28 128 32 99&#10;4 174 -9 253 -44 l51 -23 22 81 c26 94 25 96 -65 123 -109 32 -236 41 -345 23z"/>
<path style="opacity: 1; visibility: visible; fill: rgb(0, 46, 122);" data-index="9" d="M7165 5750 c-3 -5 -17 -89 -30 -187 -14 -98 -49 -349 -80 -558 -30&#10;-209 -55 -387 -55 -395 0 -13 16 -14 97 -12 54 2 100 5 101 7 2 2 14 78 27&#10;170 13 91 25 168 27 170 2 3 35 -39 74 -92 38 -53 95 -131 126 -174 l57 -78&#10;121 -3 c66 -2 120 -1 120 2 0 3 -49 70 -108 150 -59 80 -128 174 -154 210&#10;l-46 65 121 110 c66 61 149 135 184 165 l63 55 -115 3 c-136 3 -107 19 -299&#10;-164 -66 -63 -121 -112 -124 -110 -3 4 40 326 78 589 6 38 8 73 5 78 -8 12&#10;-182 12 -190 -1z"/>
<path style="opacity: 1; visibility: visible; fill: rgb(0, 46, 122);" data-index="10" d="M4496 5708 c-14 -107 -128 -885 -145 -990 l-18 -118 114 0 c62 0 113&#10;2 113 4 0 8 59 428 65 464 l6 32 244 0 c235 0 245 -1 245 -19 0 -11 -14 -113&#10;-30 -228 -17 -114 -32 -219 -33 -232 -2 -23 -2 -23 103 -22 57 1 107 6 110 12&#10;4 5 12 57 19 117 7 59 22 166 32 237 67 451 109 747 109 764 0 20 -6 21 -105&#10;21 -100 0 -105 -1 -109 -22 -3 -13 -17 -104 -31 -203 -14 -99 -27 -195 -30&#10;-212 l-6 -33 -244 0 c-227 0 -245 1 -245 18 0 9 14 111 30 226 17 115 30 213&#10;30 218 0 4 -49 8 -109 8 l-109 0 -6 -42z"/>
<path style="opacity: 1; visibility: visible; fill: rgb(0, 46, 122);" data-index="11" d="M2086 5652 c-3 -6 -42 -36 -86 -67 -44 -31 -80 -62 -80 -68 0 -11 86&#10;-129 515 -717 308 -421 463 -635 584 -800 156 -215 179 -241 246 -285 99 -64&#10;108 -65 628 -65 459 0 470 0 507 21 61 35 80 80 80 193 0 87 -3 100 -26 135&#10;-47 72 -41 71 -521 71 -244 0 -456 5 -493 10 -92 15 -200 69 -259 129 -53 54&#10;-265 338 -800 1071 -263 360 -285 388 -295 372z"/>
<path style="opacity: 1; visibility: visible; fill: rgb(0, 46, 122);" data-index="12" d="M2915 5591 c-172 -229 -295 -406 -291 -418 3 -7 37 -53 77 -103 l71&#10;-90 32 42 c133 176 357 501 350 507 -8 7 -153 106 -179 122 -5 4 -32 -23 -60&#10;-60z"/>
<path style="opacity: 1; visibility: visible; fill: rgb(0, 46, 122);" data-index="13" d="M5761 5365 c-201 -56 -321 -224 -321 -449 0 -149 53 -245 167 -302&#10;55 -27 65 -29 188 -29 125 0 132 1 197 32 90 43 160 109 202 194 45 89 59 163&#10;54 269 -7 135 -61 219 -176 271 -62 29 -230 36 -311 14z m217 -164 c59 -42 75&#10;-121 51 -257 -29 -165 -155 -252 -289 -198 -22 9 -50 30 -63 48 -20 28 -22 43&#10;-22 141 0 91 4 118 21 156 27 57 80 112 125 127 50 17 142 8 177 -17z"/>
<path style="opacity: 1; visibility: visible; fill: rgb(0, 46, 122);" data-index="14" d="M6623 5361 c-189 -54 -304 -228 -307 -461 -1 -139 57 -242 167 -291&#10;46 -21 66 -24 177 -24 100 1 136 5 180 21 l55 20 7 75 c3 40 5 75 4 76 -1 1&#10;-30 -7 -65 -17 -73 -23 -178 -26 -224 -6 -71 30 -104 104 -92 210 11 94 39&#10;158 90 205 25 23 46 41 48 41 3 0 27 4 55 10 57 10 147 -2 195 -27 16 -8 31&#10;-12 34 -9 3 2 11 37 19 77 16 85 19 82 -78 104 -87 20 -187 18 -265 -4z"/>
<path style="opacity: 1; visibility: visible; fill: rgb(0, 46, 122);" data-index="15" d="M8075 5366 c-190 -60 -291 -207 -302 -437 -7 -136 10 -193 77 -259&#10;68 -69 123 -85 285 -85 112 0 139 3 196 24 l66 24 7 75 c4 41 6 76 4 78 -2 1&#10;-23 -6 -48 -17 -61 -27 -173 -43 -243 -35 -93 12 -147 74 -147 169 l0 27 254&#10;0 c215 0 255 2 260 15 3 8 8 54 12 103 9 122 -11 190 -74 253 -34 34 -62 51&#10;-101 63 -64 19 -189 20 -246 2z m150 -136 c57 -13 85 -51 85 -117 l0 -53 -161&#10;0 -160 0 7 23 c22 71 75 130 131 145 50 13 51 13 98 2z"/>
<path style="opacity: 1; visibility: visible; fill: rgb(0, 46, 122);" data-index="16" d="M10490 5366 c-167 -47 -274 -179 -308 -379 -12 -74 -13 -101 -3 -156&#10;23 -129 98 -214 213 -241 66 -16 227 -7 298 17 l55 18 7 74 c4 41 7 76 5 77&#10;-1 1 -29 -7 -62 -19 -81 -28 -187 -29 -234 -2 -57 33 -73 65 -79 148 -5 89 23&#10;197 64 247 71 83 193 96 335 36 13 -6 19 6 32 71 11 58 12 80 4 85 -7 4 -42&#10;14 -79 23 -79 18 -185 18 -248 1z"/>
<path style="opacity: 1; visibility: visible; fill: rgb(0, 46, 122);" data-index="17" d="M11271 5368 c-43 -12 -77 -33 -122 -75 l-36 -34 5 50 5 51 -92 0&#10;c-86 0 -91 -1 -95 -22 -12 -53 -107 -740 -103 -744 8 -8 197 9 197 18 0 5 14&#10;107 30 226 36 254 49 290 125 337 40 25 59 30 112 30 72 0 70 -2 79 94 6 66 6&#10;68 -17 74 -30 8 -46 8 -88 -5z"/>
<path style="opacity: 1; visibility: visible; fill: rgb(0, 46, 122);" data-index="18" d="M11608 5370 c-25 -4 -71 -15 -101 -24 l-54 -16 -7 -52 c-3 -29 -6&#10;-65 -6 -79 l0 -27 68 24 c129 45 262 41 297 -9 18 -26 20 -116 2 -122 -6 -3&#10;-68 -14 -137 -24 -199 -30 -285 -72 -329 -165 -25 -51 -28 -153 -6 -195 37&#10;-73 111 -106 225 -99 65 4 87 10 143 41 l66 36 3 -32 c2 -18 6 -31 11 -29 4 1&#10;40 2 80 2 l74 0 11 88 c6 48 23 164 37 257 28 192 31 261 11 308 -17 42 -76&#10;93 -123 107 -50 15 -206 21 -265 10z m175 -512 c-9 -51 -20 -87 -31 -95 -45&#10;-35 -80 -47 -140 -48 -55 0 -66 3 -83 24 -23 28 -25 88 -3 119 8 12 29 29 46&#10;38 33 17 144 42 194 43 l31 1 -14 -82z"/>
<path style="opacity: 1; visibility: visible; fill: rgb(0, 46, 122);" data-index="19" d="M12467 5366 c-27 -7 -69 -27 -93 -45 l-45 -31 7 35 6 35 -91 0 c-50&#10;0 -91 -3 -91 -7 0 -16 -139 -951 -155 -1050 l-6 -33 101 0 c60 0 100 4 100 10&#10;0 5 11 87 25 182 14 95 25 173 25 175 0 1 23 -10 52 -25 45 -24 64 -27 143&#10;-27 84 0 96 3 160 35 142 72 218 229 219 455 1 99 -2 116 -25 166 -31 66 -73&#10;101 -148 123 -65 19 -118 19 -184 2z m97 -160 c51 -21 69 -71 64 -170 -13&#10;-219 -100 -326 -247 -301 -21 3 -53 19 -71 34 l-34 28 18 124 c34 244 35 248&#10;70 266 68 35 144 42 200 19z"/>
<path style="opacity: 1; visibility: visible; fill: rgb(0, 46, 122);" data-index="20" d="M13267 5365 c-27 -7 -66 -25 -88 -39 l-39 -26 0 30 0 30 -90 0 c-49&#10;0 -90 -3 -90 -7 -1 -42 -125 -895 -155 -1055 l-4 -28 94 0 c90 0 95 1 99 23&#10;12 54 46 290 46 317 0 35 3 36 38 12 81 -56 229 -55 340 2 129 67 220 276 209&#10;481 -5 104 -29 168 -83 214 -63 56 -175 74 -277 46z m99 -160 c23 -10 39 -26&#10;49 -49 29 -69 11 -235 -35 -326 -45 -88 -150 -123 -243 -82 -26 12 -50 28 -53&#10;37 -4 8 3 84 15 168 32 227 29 216 65 234 69 36 144 42 202 18z"/>
<path style="opacity: 1; visibility: visible; fill: rgb(0, 46, 122);" data-index="21" d="M13987 5369 c-102 -24 -193 -100 -245 -204 -42 -85 -57 -156 -56&#10;-270 0 -82 4 -109 22 -151 29 -63 71 -106 137 -136 44 -20 66 -23 175 -23 104&#10;0 136 4 192 23 l66 23 7 70 c4 39 5 72 3 74 -2 3 -29 -5 -58 -16 -32 -12 -89&#10;-23 -140 -26 -75 -4 -90 -2 -130 19 -53 27 -80 73 -80 136 l0 42 239 0 239 0&#10;12 81 c16 101 8 168 -27 239 -33 64 -84 104 -156 119 -56 13 -146 13 -200 0z&#10;m166 -151 c25 -13 47 -68 47 -118 l0 -40 -150 0 c-166 0 -162 -2 -131 66 20&#10;43 74 94 113 106 27 8 95 0 121 -14z"/>
<path style="opacity: 1; visibility: visible; fill: rgb(0, 46, 122);" data-index="22" d="M14770 5344 c-25 -13 -57 -39 -73 -57 l-27 -32 6 53 7 52 -92 0 c-58&#10;0 -91 -4 -91 -11 0 -6 -18 -130 -40 -277 -21 -147 -45 -313 -53 -369 l-14&#10;-103 61 -1 c61 -1 129 1 133 5 1 0 16 102 33 226 34 244 50 294 104 334 39 30&#10;109 49 151 42 l32 -6 12 69 c17 106 19 101 -46 101 -43 0 -69 -7 -103 -26z"/>
<path style="opacity: 1; visibility: visible; fill: rgb(0, 46, 122);" data-index="23" d="M8545 5343 c3 -10 40 -135 81 -278 41 -143 86 -297 100 -342 l25 -82&#10;-105 -180 c-59 -98 -106 -182 -106 -185 0 -3 45 -6 100 -6 l99 0 24 43 c77&#10;135 209 370 237 422 18 33 61 112 95 175 110 202 235 439 235 444 0 3 -44 6&#10;-98 6 l-98 0 -125 -260 c-89 -186 -126 -254 -131 -242 -7 16 -65 251 -105 430&#10;l-16 72 -110 0 c-100 0 -109 -1 -102 -17z"/>
<path style="opacity: 1; visibility: visible; fill: rgb(0, 46, 122);" data-index="24" d="M2119 4509 c-206 -287 -248 -335 -329 -378 -102 -55 -162 -60 -653&#10;-61 -485 0 -484 0 -530 -64 -20 -28 -22 -43 -22 -143 0 -121 7 -142 69 -187&#10;27 -21 38 -21 535 -21 l507 0 75 37 c93 46 130 85 266 278 60 85 168 236 239&#10;335 71 99 140 194 152 211 l22 32 -76 98 c-42 55 -77 100 -78 102 -2 1 -81&#10;-106 -177 -239z"/>
</g>
</svg>