<svg preserveAspectRatio="xMidYMid meet" viewBox="27.412389380530975 15.408 210.30442477876105 192.6" xmlns="http://www.w3.org/2000/svg" version="1.0" style="max-height: 500px" width="210.30442477876105" height="192.6">

<g stroke="none" fill="#000000" transform="translate(0.000000,214.000000) scale(0.100000,-0.100000)">
<path d="M460 1940 c-11 -11 -20 -30 -20 -42 0 -24 84 -154 143 -222 l34 -40&#10;35 22 c66 41 66 39 -22 166 -99 141 -126 160 -170 116z"/>
<path d="M2108 1948 c-23 -18 -168 -228 -168 -243 0 -13 72 -65 89 -65 9 0&#10;146 184 170 228 16 30 14 40 -14 67 -27 28 -53 32 -77 13z"/>
<path d="M1855 1594 c-19 -26 -35 -50 -35 -53 0 -3 21 -19 47 -35 l46 -30 33&#10;40 c19 21 34 44 33 49 0 6 -20 25 -44 42 l-44 33 -36 -46z"/>
<path d="M701 1600 c-45 -33 -45 -37 2 -94 l24 -30 35 22 c59 37 62 44 28 91&#10;-17 22 -34 41 -39 41 -4 0 -27 -14 -50 -30z"/>
<path d="M829 1454 c-19 -14 -40 -29 -48 -33 -11 -7 -7 -18 18 -55 18 -25 36&#10;-46 41 -46 14 0 89 53 90 63 0 8 -58 97 -64 97 -1 0 -18 -12 -37 -26z"/>
<path d="M1756 1455 c-53 -82 -52 -70 -5 -104 23 -17 46 -31 50 -31 9 0 73 90&#10;67 94 -1 1 -19 13 -38 27 -55 40 -57 40 -74 14z"/>
<path d="M935 1289 c-22 -17 -41 -34 -43 -39 -2 -5 9 -26 24 -47 16 -21 29&#10;-40 31 -42 1 -2 25 11 53 29 l50 32 -18 30 c-9 16 -26 38 -37 48 -20 18 -21&#10;18 -60 -11z"/>
<path d="M1628 1279 c-16 -21 -28 -43 -28 -49 0 -9 89 -75 94 -68 46 61 56 77&#10;56 86 0 11 -76 72 -89 72 -3 -1 -18 -19 -33 -41z"/>
<path d="M1037 1127 l-39 -32 82 -115 c339 -472 560 -771 594 -806 25 -25 57&#10;-46 81 -53 24 -7 137 -11 288 -11 l248 0 24 25 c21 20 25 34 25 83 0 44 -5 66&#10;-19 83 -19 24 -21 24 -283 29 -363 7 -312 -24 -597 366 -307 420 -341 464&#10;-353 464 -7 0 -30 -15 -51 -33z"/>
<path d="M1478 1073 c-35 -49 -74 -103 -87 -121 l-23 -33 27 -39 c41 -59 53&#10;-67 70 -44 44 58 175 254 175 262 0 10 -74 62 -89 62 -5 0 -38 -39 -73 -87z"/>
<path d="M1163 643 c-16 -21 -57 -76 -90 -123 -70 -98 -125 -153 -168 -171&#10;-20 -8 -120 -15 -296 -18 -317 -7 -309 -4 -309 -106 0 -47 5 -69 19 -86 l19&#10;-24 274 -3 274 -3 50 33 c38 26 79 76 192 233 78 110 142 204 142 208 0 11&#10;-63 96 -72 97 -3 0 -19 -17 -35 -37z"/>
</g>
</svg>