<svg preserveAspectRatio="xMidYMid meet" viewBox="309.1295116772824 323 985.1380042462845 860.2" xmlns="http://www.w3.org/2000/svg" version="1.0" style="max-height: 500px" width="985.1380042462845" height="860.2">

<g stroke="none" fill="#000000" transform="translate(0.000000,1700.000000) scale(0.100000,-0.100000)">
<path d="M8855 13609 c-1616 -44 -2931 -458 -3265 -1029 -53 -91 -81 -179 -87&#10;-281 l-6 -87 -151 -42 c-343 -96 -632 -213 -866 -353 -295 -176 -479 -392&#10;-521 -611 -5 -27 -9 -351 -9 -735 0 -773 -1 -752 75 -900 92 -178 278 -341&#10;558 -491 l99 -53 -152 -43 c-712 -207 -1169 -511 -1298 -866 l-27 -73 -3 -685&#10;c-4 -744 -1 -783 49 -906 81 -196 307 -402 607 -554 374 -189 846 -334 1404&#10;-429 994 -170 2183 -170 3175 0 895 153 1553 421 1867 760 123 133 191 281&#10;198 428 l3 73 145 40 c591 161 1042 397 1256 657 67 80 129 199 149 282 22 95&#10;22 1426 0 1514 -61 243 -271 459 -627 648 -54 29 -98 54 -98 57 0 3 33 14 73&#10;24 314 81 717 249 922 385 201 133 340 273 412 416 12 22 30 71 42 109 21 67&#10;21 84 21 775 0 776 0 774 -61 895 -41 81 -131 198 -193 251 -28 24 -64 56 -81&#10;70 -67 57 -224 155 -353 219 -744 372 -1954 571 -3257 535z m694 -274 c782&#10;-22 1593 -165 2165 -382 299 -113 515 -239 662 -387 120 -121 149 -178 149&#10;-296 0 -117 -29 -174 -150 -296 -292 -294 -928 -535 -1765 -668 -528 -84 -943&#10;-111 -1590 -103 -554 6 -851 29 -1290 98 -858 134 -1512 378 -1806 673 -109&#10;109 -149 189 -149 296 0 67 4 84 35 146 119 237 531 477 1110 648 485 142&#10;1071 234 1710 266 350 17 449 18 919 5z m-4049 -1877 c0 -260 4 -499 9 -530&#10;23 -137 93 -259 226 -393 136 -137 297 -243 540 -357 44 -21 72 -38 62 -38&#10;-38 0 -359 52 -525 85 -552 111 -994 270 -1283 460 -108 72 -242 208 -276 281&#10;-23 49 -28 72 -28 139 0 71 4 87 34 145 44 84 177 217 294 294 109 71 304 169&#10;457 229 122 48 441 151 483 156 4 1 7 -212 7 -471z m450 145 c25 -16 91 -56&#10;148 -88 l102 -58 0 -469 c0 -373 -3 -468 -12 -462 -7 4 -55 36 -106 71 -133&#10;92 -222 185 -269 280 l-38 77 -3 394 -3 394 68 -55 c37 -29 88 -67 113 -84z&#10;m6578 -353 l-3 -315 -34 -65 c-55 -105 -203 -242 -368 -339 l-53 -30 0 472 0&#10;473 68 33 c136 67 366 220 382 255 8 18 11 -152 8 -484z m-5808 5 c58 -18 149&#10;-45 203 -60 l97 -28 0 -484 c0 -418 -2 -484 -14 -480 -8 3 -34 11 -58 17 -67&#10;18 -325 106 -403 137 l-70 28 -3 465 c-1 256 0 470 2 477 4 9 24 5 73 -13 37&#10;-14 115 -41 173 -59z m5068 -887 c-43 -26 -482 -168 -521 -168 -16 0 -17 39&#10;-17 480 l0 479 43 11 c108 29 261 75 376 113 l126 42 3 -474 c2 -373 0 -476&#10;-10 -483z m-4291 698 c103 -19 245 -42 316 -52 l127 -17 0 -487 0 -487 -22 3&#10;c-13 2 -72 11 -133 19 -148 22 -445 75 -472 86 l-23 9 0 480 c0 297 4 480 10&#10;480 5 0 94 -15 197 -34z m3481 -453 l-3 -488 -139 -27 c-148 -28 -497 -82&#10;-499 -76 -1 2 -1 221 1 488 l2 486 138 17 c75 10 216 33 312 51 96 18 178 34&#10;183 35 4 0 6 -218 5 -486z m-2545 337 c92 -7 261 -15 375 -18 l207 -7 3 -489&#10;2 -489 -207 7 c-195 7 -379 18 -535 32 l-68 7 0 489 0 490 28 -6 c15 -3 103&#10;-10 195 -16z m1627 -470 c1 -265 -1 -484 -3 -486 -13 -13 -751 -54 -763 -42&#10;-6 7 -8 208 -5 681 l1 297 111 0 c116 0 451 17 579 29 41 4 76 6 78 5 1 0 2&#10;-218 2 -484z m-5774 45 c72 -58 210 -143 329 -202 l94 -47 0 -473 c-1 -260 -4&#10;-475 -8 -477 -10 -6 -190 111 -265 172 -83 68 -145 143 -183 220 l-28 57 -3&#10;398 c-1 218 0 397 3 397 4 0 31 -20 61 -45z m765 -380 c67 -23 321 -97 427&#10;-125 l42 -11 0 -494 c0 -272 -1 -495 -3 -495 -25 0 -302 86 -439 136 l-98 36&#10;-2 282 c-3 278 -4 696 -2 696 0 0 34 -11 75 -25z m893 -220 c78 -14 220 -35&#10;316 -48 l175 -23 3 -502 c2 -435 0 -502 -12 -502 -57 0 -607 93 -628 106 -9 6&#10;-11 994 -1 994 3 0 70 -11 147 -25z m5032 -117 c-28 -188 -272 -401 -651 -571&#10;-107 -47 -329 -130 -383 -142 l-32 -7 2 308 3 308 222 22 c239 24 508 62 698&#10;99 162 31 149 32 141 -17z m-4053 2 c81 -6 248 -13 372 -17 l225 -6 0 -505 0&#10;-505 -212 7 c-219 7 -466 21 -550 32 l-48 6 0 503 0 504 33 -5 c17 -2 98 -9&#10;180 -14z m1062 -65 c193 -23 452 -45 523 -45 l62 0 0 -435 c0 -340 -3 -437&#10;-12 -440 -17 -5 -431 -32 -620 -41 l-148 -6 0 497 0 497 33 -6 c17 -3 91 -12&#10;162 -21z m1653 -397 l-3 -343 -140 -32 c-131 -30 -485 -94 -602 -108 l-53 -7&#10;0 411 0 411 343 3 c188 1 368 3 400 5 l57 2 -2 -342z m1694 270 c204 -108 371&#10;-256 436 -388 36 -73 38 -190 5 -263 -74 -161 -283 -330 -578 -467 -430 -199&#10;-1021 -346 -1715 -425 -353 -40 -557 -49 -1065 -49 -520 0 -673 8 -1082 54&#10;-285 32 -699 102 -828 139 -16 5 -82 21 -145 36 -366 87 -754 241 -976 388&#10;-93 61 -240 185 -231 194 3 2 58 -12 123 -31 391 -116 885 -207 1354 -250 375&#10;-35 516 -41 975 -40 457 0 603 6 965 40 932 87 1767 324 2232 633 174 115 344&#10;293 388 404 5 15 14 38 20 52 5 14 12 25 16 25 4 0 52 -24 106 -52z m-6562&#10;-1345 c0 -401 3 -510 15 -560 47 -200 221 -404 480 -563 83 -51 315 -170 332&#10;-170 6 0 14 -4 17 -9 3 -4 -5 -6 -17 -4 -569 92 -746 129 -1051 219 -550 162&#10;-939 394 -1045 624 -19 42 -25 72 -26 125 0 105 40 183 153 295 190 189 509&#10;351 964 490 90 27 166 49 171 50 4 0 7 -224 7 -497z m480 134 c47 -30 122 -73&#10;168 -96 l82 -41 0 -470 0 -471 -32 17 c-148 76 -343 254 -394 359 l-29 60 -3&#10;399 -3 398 63 -50 c35 -27 101 -74 148 -105z m6536 -647 c-33 -110 -143 -234&#10;-308 -347 -51 -35 -95 -63 -100 -63 -4 0 -8 211 -8 468 l0 468 66 32 c77 38&#10;238 142 309 200 l50 40 3 -375 c2 -303 -1 -384 -12 -423z m-686 -75 l0 -475&#10;-37 -16 c-68 -29 -286 -105 -400 -139 l-113 -33 0 484 c0 379 3 485 13 488 6&#10;3 71 21 142 41 72 20 186 56 255 80 69 24 128 44 133 44 4 1 7 -213 7 -474z&#10;m-5200 422 c128 -44 381 -117 403 -117 16 0 17 -40 17 -485 0 -346 -3 -485&#10;-11 -485 -28 0 -382 113 -506 162 l-33 12 0 479 c0 379 3 478 13 475 6 -3 59&#10;-21 117 -41z m4380 -662 l0 -484 -37 -10 c-98 -25 -538 -101 -590 -101 l-23 0&#10;0 485 0 484 33 5 c17 3 109 17 202 31 94 14 222 36 285 49 63 13 118 24 123&#10;25 4 0 7 -217 7 -484z m-3525 446 c89 -17 234 -40 323 -53 l162 -22 0 -488 0&#10;-488 -22 4 c-13 3 -90 15 -173 26 -129 18 -360 59 -432 77 l-23 5 0 484 c0&#10;266 1 484 3 484 1 0 74 -13 162 -29z m990 -121 c83 -5 246 -13 363 -16 l212&#10;-7 0 -484 c-1 -395 -4 -485 -14 -489 -18 -7 -467 12 -653 27 l-143 12 0 489 0&#10;489 43 -5 c23 -3 110 -10 192 -16z m1615 -465 l0 -485 -22 -5 c-68 -15 -733&#10;-49 -750 -39 -5 3 -8 221 -8 485 1 367 4 481 13 484 7 2 129 9 272 15 143 7&#10;298 15 345 19 47 5 100 9 118 10 l32 1 0 -485z m-5711 -24 c90 -59 266 -151&#10;379 -199 l52 -23 0 -479 c0 -350 -3 -480 -11 -480 -18 0 -228 118 -299 168&#10;-108 76 -222 197 -261 277 l-34 70 -3 399 -3 399 43 -35 c24 -19 85 -63 137&#10;-97z m891 -374 c86 -25 202 -55 258 -68 l102 -23 0 -499 c0 -470 -1 -498 -17&#10;-493 -10 3 -56 15 -103 26 -47 12 -137 37 -200 57 -63 19 -128 38 -145 43 -16&#10;4 -42 13 -57 20 l-28 13 0 490 c0 461 1 489 18 484 9 -3 87 -26 172 -50z m810&#10;-173 c65 -12 322 -46 430 -57 l35 -3 2 -502 3 -502 -23 0 c-40 0 -329 39 -474&#10;65 -79 14 -146 25 -148 25 -3 0 -5 225 -5 500 l0 501 53 -6 c28 -4 86 -13 127&#10;-21z m4877 -101 c-28 -170 -239 -364 -567 -522 -119 -57 -346 -151 -365 -151&#10;-3 0 -5 131 -5 290 0 241 2 290 14 290 102 0 683 81 866 120 63 14 63 13 57&#10;-27z m-3807 -3 c129 -6 288 -10 353 -10 l117 0 0 -505 0 -505 -82 0 c-106 0&#10;-516 17 -630 26 l-88 7 0 504 0 505 48 -6 c26 -3 153 -11 282 -16z m955 -75&#10;c77 -7 212 -19 300 -25 88 -6 184 -13 213 -16 l52 -5 0 -418 0 -418 -47 -7&#10;c-89 -11 -419 -36 -576 -42 l-157 -7 0 482 0 483 38 -6 c20 -4 100 -13 177&#10;-21z m1645 -354 c0 -176 -3 -322 -8 -324 -41 -26 -709 -167 -789 -167 -10 0&#10;-13 86 -13 395 l0 395 223 1 c122 1 285 5 362 8 77 4 159 8 183 9 l42 2 0&#10;-319z"/>
<path d="M8715 13199 c-614 -29 -1210 -119 -1644 -250 -607 -182 -914 -446&#10;-861 -741 33 -180 176 -322 465 -464 859 -420 2787 -541 4200 -265 703 137&#10;1152 354 1283 619 35 72 37 81 37 172 0 86 -3 101 -32 160 -30 62 -134 190&#10;-154 190 -6 0 -7 -5 -3 -12 4 -7 3 -8 -4 -4 -6 4 -9 12 -7 19 12 32 -230 170&#10;-438 251 -635 248 -1758 376 -2842 325z m940 -269 c707 -34 1314 -135 1755&#10;-291 263 -94 468 -219 504 -310 31 -78 17 -118 -69 -198 -189 -172 -624 -323&#10;-1210 -420 -1187 -196 -2691 -125 -3580 170 -265 88 -477 206 -548 306 -60 84&#10;-31 163 91 253 318 236 1024 411 1917 475 115 8 246 16 290 18 203 7 669 6&#10;850 -3z"/>
<path d="M9262 12830 c-127 -18 -233 -61 -324 -132 -41 -32 -78 -100 -78 -144&#10;0 -44 42 -123 99 -186 l52 -57 -23 -14 c-83 -51 -377 -217 -384 -217 -17 0&#10;-44 57 -44 93 0 28 12 51 51 103 45 58 51 70 43 93 -26 73 -186 101 -276 48&#10;-159 -93 -167 -263 -19 -399 29 -27 51 -52 47 -55 -3 -3 -63 -40 -133 -82&#10;-137 -81 -157 -105 -109 -130 44 -24 98 -7 239 74 l132 76 50 -20 c128 -53&#10;233 -72 385 -72 224 1 434 92 495 215 44 88 28 146 -73 261 -34 39 -62 72 -62&#10;75 0 3 42 29 93 58 50 29 130 75 177 102 l85 50 17 -23 c25 -32 22 -78 -7&#10;-118 -13 -19 -30 -44 -36 -56 -32 -60 57 -119 166 -111 79 7 120 29 155 85 40&#10;63 47 119 22 174 -18 41 -106 139 -124 139 -22 0 -2 22 46 49 63 37 79 53 70&#10;74 -8 22 -66 39 -100 31 -16 -4 -54 -22 -85 -40 l-55 -33 -77 29 c-140 55&#10;-291 76 -415 60z m276 -180 l33 -12 -63 -38 c-35 -20 -106 -62 -159 -93 -53&#10;-31 -101 -57 -106 -57 -15 0 -53 75 -53 103 0 38 54 83 130 108 33 11 177 4&#10;218 -11z m-411 -469 c31 -46 38 -76 24 -109 -25 -60 -128 -102 -250 -102 -80&#10;0 -172 19 -173 35 -1 12 343 214 362 212 8 -1 25 -18 37 -36z"/>
<path d="M0 500 l0 -500 8000 0 8000 0 0 500 0 500 -8000 0 -8000 0 0 -500z&#10;m776 263 c35 -12 68 -35 117 -84 l67 -68 0 -125 c0 -138 -9 -173 -49 -183 -14&#10;-3 -52 -21 -83 -40 -107 -66 -238 -55 -331 27 -129 114 -121 329 17 431 27 20&#10;63 41 80 47 49 16 128 14 182 -5z m464 -160 c1 -92 2 -96 16 -71 17 32 62 58&#10;100 58 26 0 94 -35 94 -48 0 -4 -26 -33 -57 -65 -56 -57 -57 -59 -28 -55 17 3&#10;38 9 48 13 14 6 17 2 17 -22 0 -69 -129 -72 -168 -3 -20 35 -28 37 -37 9 -9&#10;-26 -62 -59 -98 -59 -99 0 -154 119 -88 192 27 30 35 33 85 33 l56 0 0 58 c0&#10;57 0 57 30 57 l30 0 0 -97z m885 67 c0 -18 -6 -26 -23 -28 -13 -2 -25 3 -28&#10;12 -10 26 4 48 28 44 17 -2 23 -10 23 -28z m475 -29 l0 -59 39 5 c33 5 41 2&#10;55 -19 13 -20 76 -190 76 -206 0 -2 -14 -2 -32 0 -30 3 -33 7 -56 81 -25 80&#10;-41 99 -67 77 -11 -9 -15 -33 -15 -86 l0 -74 -30 0 c-29 0 -30 2 -31 43 0 33&#10;-2 38 -9 21 -4 -12 -21 -31 -37 -44 -23 -18 -37 -21 -80 -18 l-53 5 0 -44 c0&#10;-41 -1 -43 -30 -43 l-30 0 0 118 c0 129 7 150 60 177 59 30 148 5 170 -48 6&#10;-15 9 7 9 76 l1 97 30 0 c30 0 30 0 30 -59z m-370 -16 c0 -31 3 -35 25 -35 21&#10;0 25 -5 25 -30 0 -25 -4 -30 -25 -30 -24 0 -25 -3 -25 -55 0 -52 1 -55 25 -55&#10;21 0 25 -5 25 -30 0 -28 -3 -30 -35 -30 -56 0 -75 27 -75 105 0 37 -4 65 -10&#10;65 -5 0 -10 14 -10 30 0 17 5 30 10 30 6 0 10 11 10 23 0 15 9 28 23 35 34 16&#10;37 15 37 -23z m830 0 c0 -31 3 -35 25 -35 21 0 25 -5 25 -30 0 -25 -4 -30 -25&#10;-30 -24 0 -25 -3 -25 -55 0 -52 1 -55 25 -55 21 0 25 -5 25 -30 0 -28 -3 -30&#10;-35 -30 -56 0 -75 27 -75 105 0 37 -4 65 -10 65 -5 0 -10 14 -10 30 0 17 5 30&#10;10 30 6 0 10 11 10 23 0 15 9 28 23 35 34 16 37 15 37 -23z m-1414 -66 c13&#10;-12 24 -28 24 -36 0 -20 17 -15 23 6 6 26 64 61 100 61 114 0 161 -151 65&#10;-210 -18 -11 -46 -20 -63 -20 -37 0 -95 34 -102 60 -4 16 -10 13 -44 -22 -37&#10;-39 -40 -40 -89 -36 l-50 5 0 -43 c0 -42 -1 -44 -30 -44 l-30 0 0 110 c0 123&#10;11 159 58 185 38 21 107 14 138 -16z m395 12 c24 -19 24 -19 5 -40 -13 -15&#10;-23 -18 -30 -11 -5 5 -16 10 -23 10 -22 0 -14 -18 14 -32 38 -18 54 -53 41&#10;-89 -17 -51 -76 -65 -119 -30 -24 19 -24 19 -5 40 13 15 23 18 30 11 14 -14&#10;36 -13 36 3 0 6 -14 18 -30 25 -33 15 -46 47 -36 87 11 44 77 58 117 26z m89&#10;-96 l0 -115 -30 0 -30 0 0 115 0 115 30 0 30 0 0 -115z m817 82 c76 -76 6&#10;-213 -99 -193 -55 10 -83 47 -83 111 0 55 18 88 60 106 34 15 96 3 122 -24z&#10;m323 18 c107 -55 62 -215 -61 -215 -22 0 -41 10 -65 34 -92 92 11 241 126 181z&#10;m191 -4 c24 -19 24 -19 5 -40 -13 -15 -23 -18 -30 -11 -5 5 -16 10 -23 10 -22&#10;0 -15 -20 10 -29 60 -23 74 -75 32 -116 -29 -30 -74 -33 -106 -6 -24 19 -24&#10;19 -5 40 13 15 23 18 30 11 13 -13 46 -13 46 0 0 5 -15 17 -32 26 -40 20 -48&#10;31 -48 67 0 58 72 88 121 48z m7699 -62 c0 -39 -4 -69 -10 -69 -6 0 -10 32&#10;-10 76 0 47 4 73 10 69 6 -3 10 -37 10 -76z m610 0 c0 -39 -4 -69 -10 -69 -6&#10;0 -10 32 -10 76 0 47 4 73 10 69 6 -3 10 -37 10 -76z m368 41 c3 -15 -7 -34&#10;-29 -56 l-33 -34 32 0 c18 0 32 -4 32 -10 0 -5 -22 -10 -50 -10 -27 0 -50 3&#10;-50 6 0 3 18 23 40 45 22 22 40 46 40 55 0 23 -31 30 -46 9 -16 -21 -28 -16&#10;-18 8 13 34 77 24 82 -13z m100 -39 c2 -44 -1 -71 -8 -71 -8 0 -16 65 -11 94&#10;1 5 -7 6 -19 3 -11 -3 -20 -3 -20 0 0 9 44 50 50 47 3 -1 7 -34 8 -73z m344&#10;55 c15 -22 7 -46 -24 -75 l-33 -31 33 0 c17 0 32 -4 32 -10 0 -5 -22 -10 -50&#10;-10 -27 0 -50 3 -50 6 0 3 18 23 40 45 22 22 40 46 40 55 0 23 -31 30 -46 9&#10;-16 -21 -28 -16 -18 8 10 27 59 28 76 3z m226 -50 c4 -53 -9 -76 -42 -76 -33&#10;0 -46 19 -46 69 0 50 7 65 30 73 30 11 55 -17 58 -66z m1202 -1 l0 -75 -33 0&#10;c-41 0 -57 15 -57 55 0 37 16 55 47 55 16 0 23 6 23 20 0 11 5 20 10 20 6 0&#10;10 -32 10 -75z m490 65 c0 -5 -4 -10 -10 -10 -5 0 -10 5 -10 10 0 6 5 10 10&#10;10 6 0 10 -4 10 -10z m64 -33 c8 -6 8 -10 -1 -14 -15 -6 -18 -73 -3 -73 6 0&#10;10 -5 10 -11 0 -6 -8 -9 -17 -7 -13 2 -20 17 -24 53 -6 53 10 120 19 80 2 -11&#10;9 -24 16 -28z m156 20 c0 -18 5 -23 28 -22 26 0 27 -3 30 -52 2 -32 -1 -53 -7&#10;-53 -6 0 -11 20 -11 46 0 38 -3 45 -17 42 -13 -2 -19 -15 -21 -46 -5 -71 -22&#10;-46 -22 33 0 43 4 75 10 75 6 0 10 -10 10 -23z m234 -20 c8 -6 8 -10 -1 -14&#10;-15 -6 -18 -73 -3 -73 6 0 10 -5 10 -11 0 -6 -8 -9 -17 -7 -13 2 -20 17 -24&#10;53 -6 53 10 120 19 80 2 -11 9 -24 16 -28z m-3044 14 c15 -29 12 -87 -6 -105&#10;-16 -16 -93 -23 -95 -8 0 4 -2 35 -4 70 l-4 62 49 0 c39 0 52 -4 60 -19z m440&#10;-25 c0 -26 5 -47 13 -50 10 -5 10 -7 0 -12 -7 -3 -13 -12 -13 -20 0 -8 -4 -14&#10;-10 -14 -5 0 -10 7 -10 15 0 10 -10 15 -30 15 -16 0 -30 3 -30 7 0 12 62 103&#10;71 103 5 0 9 -20 9 -44z m119 30 c9 -11 10 -20 1 -35 -7 -14 -7 -21 0 -21 14&#10;0 13 -43 -2 -58 -17 -17 -53 -15 -68 3 -18 21 -5 31 15 12 8 -9 22 -14 30 -11&#10;22 9 18 44 -7 53 -18 6 -19 9 -5 14 21 8 23 47 2 47 -7 0 -18 -8 -24 -17 -5&#10;-10 -13 -15 -17 -11 -11 12 17 38 41 38 12 0 28 -6 34 -14z m231 10 c0 -2 -11&#10;-27 -25 -54 -14 -28 -25 -57 -25 -66 0 -9 -4 -16 -10 -16 -15 0 -12 31 10 78&#10;l19 42 -29 0 c-17 0 -30 5 -30 10 0 6 20 10 45 10 25 0 45 -2 45 -4z m220 0&#10;c0 -3 -11 -26 -25 -52 -14 -26 -25 -55 -25 -65 0 -11 -4 -19 -10 -19 -15 0&#10;-12 31 10 78 l19 42 -29 0 c-17 0 -30 5 -30 10 0 6 20 10 45 10 25 0 45 -2 45&#10;-4z m101 -12 c10 -12 10 -20 1 -35 -7 -11 -8 -19 -2 -19 5 0 10 -13 10 -30 0&#10;-24 -5 -31 -27 -36 -14 -4 -33 -2 -42 3 -19 12 -28 63 -11 63 8 0 8 6 0 21&#10;-22 40 40 70 71 33z m-1695 -27 c9 -9 11 -97 2 -97 -4 0 -8 18 -8 40 0 28 -5&#10;43 -16 47 -21 8 -34 -13 -34 -54 0 -18 -4 -33 -10 -33 -5 0 -10 21 -10 46 0&#10;38 -3 45 -16 40 -9 -3 -18 -6 -20 -6 -2 0 -4 -18 -4 -40 0 -22 -4 -40 -10 -40&#10;-5 0 -10 22 -10 49 0 44 3 50 23 53 32 5 107 2 113 -5z m102 1 c7 -7 12 -31&#10;12 -54 l0 -42 -42 2 c-39 1 -43 3 -43 26 0 19 6 26 25 28 33 5 48 20 27 28&#10;-10 3 -24 1 -32 -6 -9 -7 -19 -10 -23 -6 -9 10 26 36 48 36 9 0 21 -5 28 -12z&#10;m110 6 c19 -6 22 -13 22 -63 0 -31 -5 -62 -12 -69 -15 -15 -64 -16 -73 -1 -11&#10;16 1 22 23 10 13 -7 22 -7 30 1 15 15 16 31 1 23 -5 -4 -21 -4 -35 -1 -20 5&#10;-24 12 -24 44 0 55 18 69 68 56z m113 -4 c21 -12 26 -49 7 -51 -7 -1 -23 0&#10;-35 1 -15 1 -23 -4 -23 -13 0 -20 20 -27 43 -15 21 11 32 5 22 -11 -9 -15 -58&#10;-14 -73 1 -17 17 -15 64 4 82 18 19 28 20 55 6z m1809 -22 l12 -33 10 33 c11&#10;39 30 37 39 -4 l6 -29 13 33 c6 17 16 32 21 32 11 0 12 3 -7 -59 -15 -53 -36&#10;-64 -42 -23 -2 12 -7 22 -12 22 -5 0 -10 -10 -12 -22 -6 -41 -27 -30 -42 23&#10;-19 62 -18 59 -7 59 5 0 14 -15 21 -32z m150 0 l12 -33 9 33 c5 17 14 32 19&#10;32 5 0 14 -15 19 -32 l9 -33 12 33 c7 17 16 32 21 32 11 0 12 3 -7 -59 -15&#10;-53 -36 -64 -42 -23 -2 12 -7 22 -12 22 -5 0 -10 -10 -12 -22 -6 -41 -27 -30&#10;-42 23 -19 62 -18 59 -7 59 5 0 14 -15 21 -32z m150 0 l12 -33 9 33 c5 17 14&#10;32 19 32 5 0 14 -15 19 -32 l9 -33 12 33 c7 17 16 32 21 32 11 0 12 3 -7 -59&#10;-15 -53 -36 -64 -42 -23 -2 12 -7 22 -12 22 -5 0 -10 -10 -12 -22 -6 -41 -27&#10;-30 -42 23 -19 62 -18 59 -7 59 5 0 14 -15 21 -32z m358 20 c7 -7 12 -20 12&#10;-30 0 -14 -8 -18 -40 -18 -31 0 -38 -3 -34 -15 7 -18 35 -20 52 -3 17 17 28 2&#10;12 -17 -28 -34 -90 -7 -90 40 0 45 58 73 88 43z m109 0 c15 -12 17 -56 4 -76&#10;-5 -8 -20 -15 -35 -15 -17 -2 -26 -8 -26 -19 0 -10 -4 -18 -10 -18 -6 0 -10&#10;29 -10 68 l0 69 32 1 c18 0 38 -4 45 -10z m124 -12 c14 -29 4 -75 -16 -83 -28&#10;-10 -64 6 -71 33 -10 41 10 74 46 74 23 0 33 -6 41 -24z m100 8 c12 -15 10&#10;-16 -19 -10 -40 9 -42 -6 -2 -21 19 -7 30 -18 30 -31 0 -33 -57 -45 -80 -17&#10;-16 19 -5 34 12 17 15 -15 48 -16 48 -2 0 6 -13 13 -29 16 -17 4 -32 13 -36&#10;21 -14 37 49 59 76 27z m49 -39 c0 -30 -4 -55 -10 -55 -5 0 -10 25 -10 55 0&#10;30 5 55 10 55 6 0 10 -25 10 -55z m167 43 c18 -14 16 -73 -2 -88 -8 -7 -24&#10;-10 -35 -7 -15 4 -20 0 -20 -14 0 -10 -4 -19 -10 -19 -6 0 -10 29 -10 68 l0&#10;69 32 1 c18 0 38 -4 45 -10z m224 -12 c14 -29 4 -75 -16 -83 -28 -10 -64 6&#10;-71 33 -10 41 10 74 46 74 23 0 33 -6 41 -24z m167 12 c7 -7 12 -26 12 -43 0&#10;-38 -16 -55 -50 -55 -46 0 -65 44 -40 91 12 22 59 26 78 7z m103 -4 c12 -15&#10;10 -16 -19 -10 -40 9 -42 -6 -2 -21 19 -7 30 -18 30 -31 0 -33 -57 -45 -80&#10;-17 -16 19 -5 34 12 17 14 -14 48 -16 48 -3 0 5 -13 12 -29 16 -16 3 -32 13&#10;-35 22 -15 37 48 59 75 27z m149 1 c17 -20 5 -32 -15 -15 -32 26 -59 -12 -35&#10;-50 8 -13 13 -13 31 -2 25 16 37 8 19 -13 -15 -18 -51 -20 -68 -3 -7 7 -12 26&#10;-12 43 0 17 5 36 12 43 17 17 53 15 68 -3z m124 -17 c14 -41 -6 -78 -42 -78&#10;-35 0 -52 16 -52 51 0 60 75 81 94 27z m164 -25 c2 -32 -1 -53 -7 -53 -6 0&#10;-11 20 -11 46 0 38 -3 45 -17 42 -13 -2 -19 -15 -21 -46 -4 -57 -22 -54 -22 4&#10;0 38 -3 45 -17 42 -13 -2 -19 -15 -21 -46 -5 -61 -22 -51 -22 13 l0 55 68 -3&#10;67 -2 3 -52z m-3628 37 c0 -5 -4 -10 -10 -10 -5 0 -10 5 -10 10 0 6 5 10 10&#10;10 6 0 10 -4 10 -10z m0 -80 c0 -5 -4 -10 -10 -10 -5 0 -10 5 -10 10 0 6 5 10&#10;10 10 6 0 10 -4 10 -10z m1930 0 c0 -5 -4 -10 -10 -10 -5 0 -10 5 -10 10 0 6&#10;5 10 10 10 6 0 10 -4 10 -10z m1310 0 c0 -5 -4 -10 -10 -10 -5 0 -10 5 -10 10&#10;0 6 5 10 10 10 6 0 10 -4 10 -10z"/>
<path d="M638 640 c-10 -15 -24 -20 -54 -20 -66 0 -74 -16 -74 -151 0 -76 4&#10;-119 12 -127 8 -8 66 -12 194 -12 153 0 185 3 198 16 13 12 16 39 16 129 0&#10;134 -6 145 -79 145 -35 0 -53 5 -66 20 -14 16 -31 20 -76 20 -48 0 -61 -4 -71&#10;-20z m132 -65 c102 -53 60 -215 -55 -215 -69 0 -121 62 -112 132 11 82 92 122&#10;167 83z m120 -10 c0 -8 -9 -15 -20 -15 -11 0 -20 7 -20 15 0 8 9 15 20 15 11&#10;0 20 -7 20 -15z"/>
<path d="M671 556 c-26 -15 -50 -51 -51 -79 -1 -56 61 -105 118 -92 81 17 95&#10;132 21 170 -34 18 -57 18 -88 1z m98 -32 c29 -37 27 -78 -5 -103 -15 -12 -38&#10;-21 -51 -21 -32 0 -73 42 -73 76 0 68 88 100 129 48z"/>
<path d="M650 472 c0 -16 45 -62 61 -62 6 0 2 8 -10 18 -11 9 -27 26 -36 37&#10;-8 12 -14 15 -15 7z"/>
<path d="M1082 518 c-24 -29 -18 -74 12 -93 38 -25 86 4 86 52 0 12 -7 29 -16&#10;37 -19 19 -67 21 -82 4z"/>
<path d="M1318 518 c-8 -7 -18 -21 -21 -30 -11 -31 9 -28 43 7 30 31 31 35 14&#10;35 -11 0 -27 -6 -36 -12z"/>
<path d="M2377 512 c-10 -10 -17 -28 -17 -40 0 -24 36 -62 60 -62 29 0 60 30&#10;60 59 0 54 -68 82 -103 43z"/>
<path d="M1525 514 c-24 -25 -16 -75 16 -93 24 -13 29 -13 53 2 47 31 27 107&#10;-29 107 -13 0 -31 -7 -40 -16z"/>
<path d="M1752 518 c-7 -7 -12 -26 -12 -43 0 -38 16 -55 51 -55 49 0 73 45 49&#10;91 -12 22 -68 27 -88 7z"/>
<path d="M2824 504 c-16 -24 -16 -29 -3 -53 21 -37 72 -41 94 -7 14 21 15 29&#10;3 53 -19 40 -70 44 -94 7z"/>
<path d="M3183 518 c-34 -44 -14 -98 37 -98 43 0 67 38 48 77 -15 31 -67 44&#10;-85 21z"/>
<path d="M12753 563 c-18 -6 -17 -88 1 -102 21 -18 38 11 34 60 -3 42 -11 52&#10;-35 42z"/>
<path d="M13945 520 c-12 -20 4 -62 23 -58 23 4 24 61 0 66 -9 2 -19 -2 -23&#10;-8z"/>
<path d="M11827 563 c-2 -5 -3 -28 -3 -53 1 -39 4 -45 24 -48 33 -5 52 15 52&#10;54 0 23 -6 37 -19 44 -23 12 -48 13 -54 3z"/>
<path d="M12310 521 c-13 -26 -13 -31 5 -31 9 0 15 9 15 25 0 30 -6 32 -20 6z"/>
<path d="M12966 555 c-3 -9 1 -18 10 -22 19 -7 39 11 30 26 -10 16 -33 13 -40&#10;-4z"/>
<path d="M12964 496 c-9 -24 4 -48 23 -44 12 2 18 12 18 28 0 29 -32 41 -41&#10;16z"/>
<path d="M11383 483 c-17 -6 -17 -33 0 -33 14 0 37 20 37 32 0 9 -18 9 -37 1z"/>
<path d="M11492 514 c-15 -27 -3 -56 22 -52 16 2 21 10 21 33 0 34 -28 47 -43&#10;19z"/>
<path d="M11607 524 c-14 -14 -6 -24 19 -24 16 0 24 5 22 13 -5 14 -31 21 -41&#10;11z"/>
<path d="M14055 520 c-4 -6 7 -10 25 -10 18 0 29 4 25 10 -3 6 -15 10 -25 10&#10;-10 0 -22 -4 -25 -10z"/>
<path d="M14175 519 c-10 -15 4 -61 17 -57 18 6 32 34 25 52 -7 18 -32 22 -42&#10;5z"/>
<path d="M14285 511 c-8 -26 4 -51 25 -51 10 0 21 7 24 16 10 25 -3 54 -24 54&#10;-10 0 -21 -8 -25 -19z"/>
<path d="M14614 516 c-10 -26 0 -51 21 -51 16 0 20 7 20 30 0 33 -30 49 -41&#10;21z"/>
<path d="M14825 511 c-8 -26 4 -51 25 -51 10 0 21 7 24 16 10 25 -3 54 -24 54&#10;-10 0 -21 -8 -25 -19z"/>
<path d="M14995 511 c-8 -26 4 -51 26 -51 20 0 36 40 24 59 -10 18 -43 12 -50&#10;-8z"/>
<path d="M15365 511 c-8 -26 4 -51 26 -51 20 0 36 40 24 59 -10 18 -43 12 -50&#10;-8z"/>
</g>
</svg>