<svg preserveAspectRatio="xMidYMid meet" viewBox="49 132 403 235" xmlns="http://www.w3.org/2000/svg" version="1.0" style="max-height: 500px" width="403" height="235">

<g stroke="none" fill="#000000" transform="translate(0.000000,500.000000) scale(0.100000,-0.100000)">
<path d="M2403 3604 c-15 -7 -17 -34 -3 -34 15 0 13 -137 -2 -142 -6 -2 -8&#10;-10 -4 -16 4 -7 34 -12 77 -12 l69 0 0 30 c0 28 -23 44 -32 22 -1 -5 -15 -12&#10;-30 -16 -27 -6 -28 -5 -28 29 0 34 20 49 35 25 12 -20 25 -9 25 20 0 32 -9 37&#10;-27 19 -16 -16 -43 -4 -43 20 0 27 50 39 67 15 16 -22 37 -6 31 22 -3 16 -14&#10;19 -63 21 -33 1 -66 -1 -72 -3z"/>
<path d="M2645 3568 c8 -41 -10 -125 -32 -146 -14 -15 -13 -17 13 -24 76 -20&#10;124 -25 124 -12 0 7 3 19 6 28 4 10 1 16 -9 16 -8 0 -17 -5 -19 -10 -2 -6 -17&#10;-8 -36 -4 -23 5 -31 11 -28 21 4 8 6 21 6 29 0 8 9 14 20 14 11 0 20 -4 20&#10;-10 0 -22 28 -8 33 16 4 22 2 25 -17 20 -31 -8 -49 7 -41 33 4 15 12 20 22 17&#10;8 -3 21 -6 29 -6 8 0 14 -7 14 -15 0 -8 7 -15 15 -15 8 0 15 9 15 20 0 11 0&#10;23 0 27 1 7 -96 31 -128 33 -9 0 -11 -9 -7 -32z"/>
<path d="M2173 3563 c-25 -5 -31 -28 -9 -40 7 -4 21 -35 30 -67 14 -48 15 -60&#10;4 -67 -10 -6 -10 -11 -1 -20 17 -17 146 18 138 38 -3 8 -5 21 -5 29 0 8 -7 14&#10;-15 14 -8 0 -15 -9 -15 -20 0 -11 -6 -20 -14 -20 -8 0 -21 -2 -29 -6 -11 -4&#10;-19 12 -31 63 -11 43 -14 69 -7 71 13 4 2 32 -13 31 -6 -1 -21 -4 -33 -6z"/>
<path d="M2885 3530 c-3 -4 -3 -14 0 -22 8 -20 -44 -128 -61 -128 -24 0 -15&#10;-30 12 -40 38 -15 47 -12 41 11 -11 40 1 50 38 35 25 -11 38 -11 56 -3 29 15&#10;45 61 31 91 -11 24 -108 71 -117 56z m84 -64 c16 -19 -2 -56 -27 -56 -33 0&#10;-44 15 -33 43 12 30 41 36 60 13z"/>
<path d="M1987 3484 c-37 -20 -48 -52 -31 -86 17 -33 40 -38 82 -19 29 13 34&#10;13 42 1 15 -23 12 -38 -11 -50 -16 -9 -24 -8 -38 4 -25 23 -45 6 -25 -22 18&#10;-26 44 -28 83 -7 35 18 44 49 26 85 -19 36 -40 43 -75 25 -37 -19 -46 -19 -54&#10;1 -11 28 14 46 51 39 25 -4 33 -2 33 9 0 14 -29 36 -47 36 -4 -1 -21 -8 -36&#10;-16z"/>
<path d="M1005 3426 c-408 -105 -454 -124 -470 -196 -13 -61 28 -145 85 -175&#10;47 -25 82 -18 240 45 247 98 474 146 574 121 37 -9 136 -79 474 -333 235 -176&#10;434 -328 444 -337 15 -15 -20 -43 -470 -381 -639 -480 -582 -434 -582 -474 0&#10;-45 41 -90 78 -84 16 2 248 170 575 416 l547 413 548 -413 c301 -227 558 -414&#10;572 -416 40 -6 82 42 78 87 -2 29 -12 42 -53 73 -27 21 -267 201 -532 401&#10;-445 335 -480 363 -465 378 10 9 210 161 445 338 486 365 464 353 615 333 134&#10;-18 265 -56 434 -123 175 -70 216 -74 269 -23 38 37 63 103 55 147 -10 55 -48&#10;84 -155 117 -133 42 -566 150 -599 150 -83 -1 -118 -26 -1056 -737 -82 -63&#10;-155 -112 -162 -109 -11 4 -134 97 -809 606 -270 204 -329 239 -400 239 -16 0&#10;-142 -28 -280 -63z m238 -76 c20 -49 37 -92 37 -95 0 -3 -12 -5 -27 -5 -24 0&#10;-33 10 -68 75 -21 41 -41 72 -43 70 -2 -2 6 -36 18 -76 17 -58 19 -74 8 -80&#10;-7 -5 -15 -9 -18 -9 -3 0 -25 36 -50 79 -24 44 -45 79 -47 78 -1 -2 9 -38 21&#10;-82 13 -44 20 -84 16 -89 -17 -17 -39 4 -75 74 -21 39 -39 69 -41 67 -2 -1 6&#10;-38 18 -80 12 -42 18 -80 15 -83 -15 -15 -38 9 -72 76 -21 39 -39 69 -41 68&#10;-1 -2 8 -41 21 -86 19 -71 21 -84 9 -89 -18 -7 -31 10 -73 94 -18 34 -34 63&#10;-36 63 -2 0 6 -33 17 -72 12 -40 22 -82 22 -93 2 -43 -30 -17 -69 57 -23 43&#10;-44 80 -47 84 -4 3 6 -36 22 -88 15 -51 26 -96 23 -100 -4 -7 -43 -12 -43 -5&#10;0 1 -18 45 -39 97 l-39 95 56 18 c65 20 462 125 478 126 6 1 27 -39 47 -89z&#10;m2717 50 c236 -61 381 -103 378 -109 -2 -4 -21 -48 -42 -99 -29 -67 -44 -92&#10;-57 -92 -10 0 -20 3 -22 8 -3 4 8 49 23 100 16 52 26 91 22 88 -3 -4 -24 -41&#10;-47 -84 -39 -74 -71 -100 -69 -57 0 11 10 53 22 93 11 39 19 72 17 72 -2 0&#10;-18 -29 -36 -63 -42 -84 -55 -101 -73 -94 -12 5 -10 18 9 89 13 45 23 84 21&#10;85 -1 2 -20 -29 -42 -68 -37 -68 -57 -89 -71 -75 -3 3 3 41 15 83 12 42 20 79&#10;18 80 -2 2 -21 -30 -42 -72 -22 -41 -43 -75 -49 -75 -30 1 -32 17 -9 95 12 44&#10;22 81 20 82 -2 2 -22 -33 -46 -77 -24 -44 -46 -80 -49 -80 -3 0 -12 4 -20 9&#10;-11 7 -9 23 12 90 14 44 23 81 21 81 -2 0 -22 -36 -46 -80 -38 -71 -46 -80&#10;-72 -80 -32 0 -33 -9 16 113 18 42 34 77 37 77 4 0 76 -18 161 -40z m-1565&#10;-725 c596 -445 1160 -880 1005 -774 -220 150 -1660 1238 -1660 1255 0 4 290&#10;-208 655 -481z m865 480 c0 -4 -238 -190 -520 -405 -96 -73 -180 -137 -187&#10;-142 -7 -5 -14 -5 -17 1 -6 9 193 162 508 391 48 36 116 86 150 112 65 50 66&#10;51 66 43z m-855 -645 c5 -9 -195 -163 -580 -446 -230 -169 -255 -187 -255&#10;-181 0 5 818 635 827 637 1 0 4 -4 8 -10z"/>
<path d="M2395 3319 c-156 -23 -336 -108 -423 -202 l-23 -24 73 -54 c40 -30&#10;164 -123 276 -208 l202 -153 276 209 276 208 -47 43 c-103 93 -254 160 -408&#10;181 -88 12 -116 12 -202 0z m115 -284 c0 -70 -4 -115 -10 -115 -6 0 -10 45&#10;-10 115 0 70 4 115 10 115 6 0 10 -45 10 -115z"/>
<path d="M3494 2932 c-23 -25 -131 -65 -139 -52 -3 5 -12 7 -19 4 -18 -7 4&#10;-76 23 -72 8 2 13 7 12 12 -3 9 18 26 32 26 4 0 13 -13 18 -29 13 -37 44 -51&#10;85 -38 48 15 56 42 30 111 l-22 59 -20 -21z m20 -79 c8 -28 -5 -43 -37 -43&#10;-26 0 -40 41 -19 58 26 20 49 14 56 -15z"/>
<path d="M1790 2863 c-86 -191 -84 -437 4 -636 l26 -59 32 24 c88 61 453 340&#10;455 346 2 6 -467 362 -488 370 -4 2 -17 -18 -29 -45z m295 -322 l40 -7 -62 -8&#10;c-34 -4 -92 -4 -130 0 -65 8 -66 9 -28 15 57 9 133 9 180 0z"/>
<path d="M2933 2727 c-133 -100 -241 -185 -240 -189 1 -3 110 -88 241 -187&#10;l240 -180 18 30 c59 98 95 296 78 433 -14 115 -65 277 -87 275 -4 0 -117 -82&#10;-250 -182z m152 -186 l50 -7 -68 -8 c-38 -4 -96 -4 -130 0 -62 8 -62 8 -22 15&#10;54 8 110 9 170 0z"/>
<path d="M1425 2769 c-9 -39 -14 -73 -13 -75 10 -9 62 -7 65 4 3 6 -2 12 -11&#10;12 -9 0 -16 7 -16 15 0 18 11 19 78 1 30 -8 60 -23 67 -33 17 -22 21 -18 30&#10;30 l7 38 -33 -5 c-40 -7 -131 14 -137 32 -2 7 5 12 17 12 43 0 13 39 -31 40&#10;-3 0 -14 -32 -23 -71z"/>
<path d="M3558 2690 c-4 -13 -132 -30 -136 -19 -2 5 -10 9 -18 9 -16 0 -17&#10;-12 -8 -87 7 -52 7 -53 40 -53 24 0 34 5 34 15 0 8 -9 15 -20 15 -15 0 -20 7&#10;-20 29 0 28 3 30 48 36 67 9 75 9 95 0 25 -10 30 -2 22 34 -6 29 -29 42 -37&#10;21z"/>
<path d="M1568 2608 c-2 -6 -42 -21 -89 -33 -79 -19 -84 -22 -87 -49 -4 -36&#10;11 -54 32 -37 11 9 27 8 75 -6 34 -10 61 -24 61 -30 0 -7 9 -13 20 -13 16 0&#10;20 7 20 36 0 34 -1 35 -30 29 -28 -6 -30 -5 -30 25 0 30 2 31 30 25 29 -6 30&#10;-5 30 29 0 24 -5 36 -14 36 -8 0 -16 -5 -18 -12z m-52 -86 c-6 -11 -56 -4 -56&#10;8 0 11 43 18 54 9 4 -4 6 -12 2 -17z"/>
<path d="M3407 2483 c-4 -3 -7 -20 -7 -36 0 -26 3 -28 24 -23 28 7 40 -6 31&#10;-34 -5 -15 -12 -18 -36 -13 -28 5 -29 4 -29 -31 0 -24 5 -36 14 -36 8 0 16 5&#10;18 10 2 6 41 16 88 23 l85 12 3 38 c2 28 0 37 -12 37 -9 0 -16 -4 -16 -10 0&#10;-16 -123 34 -128 53 -4 17 -23 23 -35 10z m126 -93 c5 -4 -5 -10 -22 -12 -25&#10;-4 -31 -1 -31 14 0 15 5 18 23 13 12 -4 26 -11 30 -15z"/>
<path d="M1573 2383 c-25 -5 -32 -33 -9 -33 19 0 31 -51 14 -61 -33 -21 -65 1&#10;-52 36 4 10 0 15 -14 15 -23 0 -42 -22 -24 -28 14 -4 16 -42 3 -42 -5 0 -16&#10;-3 -24 -6 -17 -6 -31 45 -16 61 19 20 10 33 -18 26 -16 -4 -27 -14 -26 -22 1&#10;-8 7 -40 13 -71 11 -56 25 -73 36 -44 7 19 105 40 146 31 l31 -7 -7 38 c-9 46&#10;-26 115 -29 113 -1 -1 -12 -4 -24 -6z"/>
<path d="M2238 2202 c-136 -103 -253 -193 -260 -200 -11 -11 -6 -20 27 -49&#10;146 -128 384 -199 583 -174 151 19 309 87 407 175 l40 36 -30 25 c-82 70 -496&#10;375 -507 374 -7 0 -124 -85 -260 -187z m272 -167 c0 -70 -4 -115 -10 -115 -6&#10;0 -10 45 -10 115 0 70 4 115 10 115 6 0 10 -45 10 -115z"/>
<path d="M3354 2216 c-9 -29 -8 -36 4 -41 9 -3 19 -1 22 6 6 8 14 8 31 -1 34&#10;-17 89 -71 89 -87 0 -22 27 -14 34 10 9 33 8 37 -12 37 -11 0 -27 10 -38 21&#10;-19 22 -19 22 11 17 17 -3 36 -7 44 -9 14 -4 38 47 28 58 -3 3 -20 0 -38 -6&#10;-58 -20 -143 -11 -139 15 0 5 -5 10 -12 12 -7 1 -18 -13 -24 -32z"/>
<path d="M1905 1790 c-3 -5 -3 -15 0 -20 8 -13 -67 -120 -78 -113 -5 3 -13 0&#10;-17 -7 -5 -9 0 -20 15 -32 31 -24 45 -23 45 5 0 12 7 30 14 40 14 18 16 18 40&#10;2 14 -10 26 -19 26 -22 0 -3 -14 -18 -32 -35 l-32 -30 24 -19 c31 -23 45 -19&#10;45 12 1 27 63 121 75 114 4 -3 13 1 19 9 9 10 6 17 -15 30 -31 21 -54 15 -48&#10;-12 3 -10 -1 -24 -9 -30 -11 -10 -19 -9 -36 5 -24 19 -20 53 4 53 26 0 28 23&#10;5 42 -25 20 -36 22 -45 8z"/>
<path d="M3037 1771 l-27 -18 20 -23 c20 -23 27 -50 12 -50 -11 0 -49 29 -38&#10;30 5 0 3 7 -4 15 -10 12 -15 12 -36 -2 -31 -20 -31 -43 -1 -43 27 0 106 -54&#10;108 -73 1 -6 1 -20 0 -29 -3 -23 18 -22 48 1 24 18 22 41 -4 41 -22 0 -37 39&#10;-40 102 -1 32 -4 60 -6 63 -3 2 -17 -4 -32 -14z"/>
<path d="M2801 1649 c-30 -10 -56 -21 -58 -23 -2 -2 5 -12 15 -22 30 -28 64&#10;-124 51 -141 -21 -24 17 -25 80 -2 34 12 61 23 61 25 0 2 -5 14 -11 28 -12 25&#10;-42 26 -33 1 3 -7 -7 -17 -25 -23 -28 -10 -30 -9 -40 19 -10 29 -1 43 25 38&#10;23 -4 32 3 27 21 -8 29 -22 35 -37 14 -16 -22 -46 -12 -46 15 0 26 48 41 61&#10;20 13 -22 28 2 18 29 -10 26 -17 26 -88 1z"/>
<path d="M2122 1651 c-8 -4 -24 -37 -37 -72 -26 -74 -20 -102 28 -118 54 -19&#10;73 -6 101 70 20 55 24 75 15 90 -17 32 -78 49 -107 30z m63 -35 c18 -13 18&#10;-15 1 -67 -21 -62 -30 -71 -63 -56 -27 12 -28 22 -9 68 7 19 16 42 19 52 8 20&#10;26 22 52 3z"/>
<path d="M2327 1592 c-9 -10 -21 -47 -26 -83 -8 -58 -7 -66 12 -86 25 -28 77&#10;-30 100 -5 21 23 22 52 2 52 -8 0 -15 -6 -15 -14 0 -21 -17 -29 -46 -22 -20 5&#10;-24 12 -23 44 2 68 12 87 44 87 23 0 31 -5 33 -22 5 -34 32 -29 32 6 0 34 -13&#10;46 -61 55 -27 5 -39 2 -52 -12z"/>
<path d="M2627 1603 c-12 -3 -17 -11 -14 -22 2 -10 -3 -28 -13 -41 l-17 -23&#10;-6 22 c-3 11 -1 24 4 27 23 14 8 34 -26 34 -28 0 -35 -4 -35 -19 0 -11 4 -21&#10;10 -23 16 -5 25 -128 10 -138 -7 -4 -9 -13 -6 -19 9 -13 45 -14 66 -1 12 7 12&#10;12 -4 29 -19 21 -19 52 1 58 15 5 41 -46 35 -70 -3 -15 2 -18 30 -15 22 2 34&#10;9 36 21 2 10 -3 17 -11 17 -9 0 -27 20 -40 45 l-25 45 29 31 c42 46 36 57 -24&#10;42z"/>
</g>
</svg>